<svg width="29" height="29" viewBox="0 0 29 29" fill="none" xmlns="http://www.w3.org/2000/svg">
<rect width="29" height="29" rx="14.5" fill="#F4DDA0" fill-opacity="0.359921"/>
<path d="M9.8 21C8.35457 20.9962 7.18269 19.8275 7.175 18.382V12.082C7.17885 10.6339 8.35185 9.46088 9.8 9.45704H10.5C10.7648 9.48776 10.9645 9.712 10.9645 9.97854C10.9645 10.2451 10.7648 10.4693 10.5 10.5H9.8C9.37806 10.4962 8.97239 10.6626 8.67467 10.9617C8.37696 11.2607 8.21233 11.6671 8.218 12.089V18.389C8.21799 18.8073 8.38511 19.2083 8.6822 19.5028C8.97929 19.7972 9.38172 19.9608 9.8 19.957H18.2C18.6171 19.957 19.017 19.7909 19.3112 19.4953C19.6055 19.1997 19.7699 18.7991 19.768 18.382V12.082C19.7699 11.6643 19.6057 11.263 19.3117 10.9663C19.0176 10.6696 18.6177 10.5019 18.2 10.5H17.5C17.2128 10.5001 16.9788 10.2692 16.975 9.98204C16.9712 9.83974 17.0247 9.70187 17.1233 9.59926C17.222 9.49665 17.3577 9.43786 17.5 9.43604H18.2C19.6454 9.43986 20.8173 10.6086 20.825 12.054V18.354C20.8325 19.0544 20.559 19.7286 20.0657 20.2259C19.5724 20.7231 18.9004 21.0019 18.2 21H9.8Z" fill="#2D2D2D"/>
<path d="M12.6 10.5002C12.31 10.5002 12.075 10.2651 12.075 9.9752C12.075 9.68525 12.31 9.4502 12.6 9.4502H15.4C15.6899 9.4502 15.925 9.68525 15.925 9.9752C15.925 10.2651 15.6899 10.5002 15.4 10.5002H12.6Z" fill="#2D2D2D"/>
<path fill-rule="evenodd" clip-rule="evenodd" d="M9.96098 9.98208C9.96098 10.8519 10.6661 11.5571 11.536 11.5571H11.543C12.414 11.5494 13.1149 10.8391 13.111 9.96808V8.56808C13.1033 7.70256 12.4015 7.00387 11.536 7.00008C11.1132 6.99131 10.7064 7.16166 10.416 7.46908C10.1224 7.76487 9.95872 8.16536 9.96098 8.58208V9.98208ZM11.2 8.21108C11.2871 8.11723 11.408 8.06183 11.536 8.05708C11.8205 8.05698 12.0534 8.28361 12.061 8.56808V9.96808C12.061 10.2592 11.8271 10.4962 11.536 10.5001C11.2625 10.4818 11.049 10.2562 11.046 9.98208V8.58208C11.0428 8.44225 11.0987 8.30757 11.2 8.21108Z" fill="#2D2D2D"/>
<path fill-rule="evenodd" clip-rule="evenodd" d="M15.323 11.081C15.6168 11.3784 16.018 11.545 16.436 11.543V11.55C16.8537 11.5481 17.2536 11.3804 17.5477 11.0837C17.8417 10.7871 18.0059 10.3857 18.004 9.968V8.568C17.9964 7.70248 17.2946 7.0038 16.429 7C15.563 7 14.861 7.70202 14.861 8.568V9.968C14.8614 10.3856 15.0276 10.7859 15.323 11.081ZM15.918 8.568C15.918 8.28076 16.1488 8.04683 16.436 8.043C16.5765 8.04113 16.7118 8.09561 16.8118 8.19427C16.9117 8.29293 16.968 8.42754 16.968 8.568V9.968C16.968 10.2579 16.733 10.493 16.443 10.493C16.1531 10.493 15.918 10.2579 15.918 9.968V8.568Z" fill="#2D2D2D"/>
<path d="M7.7 14.0002C7.41005 14.0002 7.175 13.7651 7.175 13.4752C7.175 13.1852 7.41005 12.9502 7.7 12.9502H20.3C20.59 12.9502 20.825 13.1852 20.825 13.4752C20.8289 13.6156 20.7748 13.7514 20.6755 13.8507C20.5762 13.95 20.4404 14.0041 20.3 14.0002H7.7Z" fill="#2D2D2D"/>
</svg>
