<svg width="99" height="700" viewBox="0 0 99 700" fill="none" xmlns="http://www.w3.org/2000/svg">
<g opacity="0.37">
<path fill-rule="evenodd" clip-rule="evenodd" d="M97.5006 3C96.6716 3 96 2.32955 96 1.50059C96 0.671624 96.6716 0 97.5006 0C98.3284 0 99 0.671624 99 1.50059C99 2.32955 98.3284 3 97.5006 3Z" fill="#937BFF"/>
<path fill-rule="evenodd" clip-rule="evenodd" d="M72.5 3C71.6725 3 71 2.32955 71 1.50059C71 0.671624 71.6725 0 72.5 0C73.3286 0 74 0.671624 74 1.50059C74 2.32955 73.3286 3 72.5 3Z" fill="#937BFF"/>
<path fill-rule="evenodd" clip-rule="evenodd" d="M47.5 3C46.6714 3 46 2.32955 46 1.50059C46 0.671624 46.6714 0 47.5 0C48.3275 0 49 0.671624 49 1.50059C49 2.32955 48.3275 3 47.5 3Z" fill="#937BFF"/>
<path fill-rule="evenodd" clip-rule="evenodd" d="M21.5 3C20.6714 3 20 2.32955 20 1.50059C20 0.671624 20.6714 0 21.5 0C22.3286 0 23 0.671624 23 1.50059C23 2.32955 22.3286 3 21.5 3Z" fill="#937BFF"/>
<path fill-rule="evenodd" clip-rule="evenodd" d="M1.5 3.13208C0.671361 3.13208 0 2.46163 0 1.63267C0 0.803704 0.671361 0.13208 1.5 0.13208C2.32864 0.13208 3 0.803704 3 1.63267C3 2.46163 2.32864 3.13208 1.5 3.13208Z" fill="#937BFF"/>
<path fill-rule="evenodd" clip-rule="evenodd" d="M85.5 27C84.6714 27 84 26.3275 84 25.5C84 24.6714 84.6714 24 85.5 24C86.3286 24 87 24.6714 87 25.5C87 26.3275 86.3286 27 85.5 27Z" fill="#937BFF"/>
<path fill-rule="evenodd" clip-rule="evenodd" d="M60.5 27C59.6714 27 59 26.3275 59 25.5C59 24.6714 59.6714 24 60.5 24C61.3286 24 62 24.6714 62 25.5C62 26.3275 61.3286 27 60.5 27Z" fill="#937BFF"/>
<path fill-rule="evenodd" clip-rule="evenodd" d="M35.5006 27C34.6716 27 34 26.3275 34 25.5C34 24.6714 34.6716 24 35.5006 24C36.3284 24 37 24.6714 37 25.5C37 26.3275 36.3284 27 35.5006 27Z" fill="#937BFF"/>
<path fill-rule="evenodd" clip-rule="evenodd" d="M11.5 27C10.6725 27 10 26.3275 10 25.5C10 24.6714 10.6725 24 11.5 24C12.3286 24 13 24.6714 13 25.5C13 26.3275 12.3286 27 11.5 27Z" fill="#937BFF"/>
<path fill-rule="evenodd" clip-rule="evenodd" d="M97.5006 51C96.6716 51 96 50.3275 96 49.5C96 48.6714 96.6716 48 97.5006 48C98.3284 48 99 48.6714 99 49.5C99 50.3275 98.3284 51 97.5006 51Z" fill="#937BFF"/>
<path fill-rule="evenodd" clip-rule="evenodd" d="M72.5 51C71.6725 51 71 50.3275 71 49.5C71 48.6714 71.6725 48 72.5 48C73.3286 48 74 48.6714 74 49.5C74 50.3275 73.3286 51 72.5 51Z" fill="#937BFF"/>
<path fill-rule="evenodd" clip-rule="evenodd" d="M47.5 51C46.6714 51 46 50.3275 46 49.5C46 48.6714 46.6714 48 47.5 48C48.3275 48 49 48.6714 49 49.5C49 50.3275 48.3275 51 47.5 51Z" fill="#937BFF"/>
<path fill-rule="evenodd" clip-rule="evenodd" d="M21.5 51C20.6714 51 20 50.3275 20 49.5C20 48.6714 20.6714 48 21.5 48C22.3286 48 23 48.6714 23 49.5C23 50.3275 22.3286 51 21.5 51Z" fill="#937BFF"/>
<path fill-rule="evenodd" clip-rule="evenodd" d="M1.5 51.1321C0.671361 51.1321 0 50.4595 0 49.6321C0 48.8034 0.671361 48.1321 1.5 48.1321C2.32864 48.1321 3 48.8034 3 49.6321C3 50.4595 2.32864 51.1321 1.5 51.1321Z" fill="#937BFF"/>
<path fill-rule="evenodd" clip-rule="evenodd" d="M85.5 78C84.6714 78 84 77.3275 84 76.5C84 75.6714 84.6714 75 85.5 75C86.3286 75 87 75.6714 87 76.5C87 77.3275 86.3286 78 85.5 78Z" fill="#937BFF"/>
<path fill-rule="evenodd" clip-rule="evenodd" d="M60.5 78C59.6714 78 59 77.3275 59 76.5C59 75.6714 59.6714 75 60.5 75C61.3286 75 62 75.6714 62 76.5C62 77.3275 61.3286 78 60.5 78Z" fill="#937BFF"/>
<path fill-rule="evenodd" clip-rule="evenodd" d="M35.5006 78C34.6716 78 34 77.3275 34 76.5C34 75.6714 34.6716 75 35.5006 75C36.3284 75 37 75.6714 37 76.5C37 77.3275 36.3284 78 35.5006 78Z" fill="#937BFF"/>
<path fill-rule="evenodd" clip-rule="evenodd" d="M11.5 78C10.6725 78 10 77.3275 10 76.5C10 75.6714 10.6725 75 11.5 75C12.3286 75 13 75.6714 13 76.5C13 77.3275 12.3286 78 11.5 78Z" fill="#937BFF"/>
<path fill-rule="evenodd" clip-rule="evenodd" d="M97.5006 102C96.6716 102 96 101.33 96 100.501C96 99.6716 96.6716 99 97.5006 99C98.3284 99 99 99.6716 99 100.501C99 101.33 98.3284 102 97.5006 102Z" fill="#937BFF"/>
<path fill-rule="evenodd" clip-rule="evenodd" d="M72.5 102C71.6725 102 71 101.33 71 100.501C71 99.6716 71.6725 99 72.5 99C73.3286 99 74 99.6716 74 100.501C74 101.33 73.3286 102 72.5 102Z" fill="#937BFF"/>
<path fill-rule="evenodd" clip-rule="evenodd" d="M47.5 102C46.6714 102 46 101.33 46 100.501C46 99.6716 46.6714 99 47.5 99C48.3275 99 49 99.6716 49 100.501C49 101.33 48.3275 102 47.5 102Z" fill="#937BFF"/>
<path fill-rule="evenodd" clip-rule="evenodd" d="M21.5 102C20.6714 102 20 101.33 20 100.501C20 99.6716 20.6714 99 21.5 99C22.3286 99 23 99.6716 23 100.501C23 101.33 22.3286 102 21.5 102Z" fill="#937BFF"/>
<path fill-rule="evenodd" clip-rule="evenodd" d="M1.5 102.132C0.671361 102.132 0 101.462 0 100.633C0 99.8037 0.671361 99.1321 1.5 99.1321C2.32864 99.1321 3 99.8037 3 100.633C3 101.462 2.32864 102.132 1.5 102.132Z" fill="#937BFF"/>
<path fill-rule="evenodd" clip-rule="evenodd" d="M85.5 127C84.6714 127 84 126.33 84 125.501C84 124.672 84.6714 124 85.5 124C86.3286 124 87 124.672 87 125.501C87 126.33 86.3286 127 85.5 127Z" fill="#937BFF"/>
<path fill-rule="evenodd" clip-rule="evenodd" d="M60.5 127C59.6714 127 59 126.33 59 125.501C59 124.672 59.6714 124 60.5 124C61.3286 124 62 124.672 62 125.501C62 126.33 61.3286 127 60.5 127Z" fill="#937BFF"/>
<path fill-rule="evenodd" clip-rule="evenodd" d="M35.5006 127C34.6716 127 34 126.33 34 125.501C34 124.672 34.6716 124 35.5006 124C36.3284 124 37 124.672 37 125.501C37 126.33 36.3284 127 35.5006 127Z" fill="#937BFF"/>
<path fill-rule="evenodd" clip-rule="evenodd" d="M11.5 127C10.6725 127 10 126.33 10 125.501C10 124.672 10.6725 124 11.5 124C12.3286 124 13 124.672 13 125.501C13 126.33 12.3286 127 11.5 127Z" fill="#937BFF"/>
<path fill-rule="evenodd" clip-rule="evenodd" d="M97.5006 153C96.6716 153 96 152.327 96 151.5C96 150.671 96.6716 150 97.5006 150C98.3284 150 99 150.671 99 151.5C99 152.327 98.3284 153 97.5006 153Z" fill="#937BFF"/>
<path fill-rule="evenodd" clip-rule="evenodd" d="M72.5 153C71.6725 153 71 152.327 71 151.5C71 150.671 71.6725 150 72.5 150C73.3286 150 74 150.671 74 151.5C74 152.327 73.3286 153 72.5 153Z" fill="#937BFF"/>
<path fill-rule="evenodd" clip-rule="evenodd" d="M47.5 153C46.6714 153 46 152.327 46 151.5C46 150.671 46.6714 150 47.5 150C48.3275 150 49 150.671 49 151.5C49 152.327 48.3275 153 47.5 153Z" fill="#937BFF"/>
<path fill-rule="evenodd" clip-rule="evenodd" d="M21.5 153C20.6714 153 20 152.327 20 151.5C20 150.671 20.6714 150 21.5 150C22.3286 150 23 150.671 23 151.5C23 152.327 22.3286 153 21.5 153Z" fill="#937BFF"/>
<path fill-rule="evenodd" clip-rule="evenodd" d="M1.5 153.132C0.671361 153.132 0 152.46 0 151.632C0 150.803 0.671361 150.132 1.5 150.132C2.32864 150.132 3 150.803 3 151.632C3 152.46 2.32864 153.132 1.5 153.132Z" fill="#937BFF"/>
<path fill-rule="evenodd" clip-rule="evenodd" d="M85.5 178C84.6714 178 84 177.327 84 176.5C84 175.671 84.6714 175 85.5 175C86.3286 175 87 175.671 87 176.5C87 177.327 86.3286 178 85.5 178Z" fill="#937BFF"/>
<path fill-rule="evenodd" clip-rule="evenodd" d="M60.5 178C59.6714 178 59 177.327 59 176.5C59 175.671 59.6714 175 60.5 175C61.3286 175 62 175.671 62 176.5C62 177.327 61.3286 178 60.5 178Z" fill="#937BFF"/>
<path fill-rule="evenodd" clip-rule="evenodd" d="M35.5006 178C34.6716 178 34 177.327 34 176.5C34 175.671 34.6716 175 35.5006 175C36.3284 175 37 175.671 37 176.5C37 177.327 36.3284 178 35.5006 178Z" fill="#937BFF"/>
<path fill-rule="evenodd" clip-rule="evenodd" d="M11.5 178C10.6725 178 10 177.327 10 176.5C10 175.671 10.6725 175 11.5 175C12.3286 175 13 175.671 13 176.5C13 177.327 12.3286 178 11.5 178Z" fill="#937BFF"/>
<path fill-rule="evenodd" clip-rule="evenodd" d="M97.5006 202C96.6716 202 96 201.327 96 200.5C96 199.671 96.6716 199 97.5006 199C98.3284 199 99 199.671 99 200.5C99 201.327 98.3284 202 97.5006 202Z" fill="#937BFF"/>
<path fill-rule="evenodd" clip-rule="evenodd" d="M72.5 202C71.6725 202 71 201.327 71 200.5C71 199.671 71.6725 199 72.5 199C73.3286 199 74 199.671 74 200.5C74 201.327 73.3286 202 72.5 202Z" fill="#937BFF"/>
<path fill-rule="evenodd" clip-rule="evenodd" d="M47.5 202C46.6714 202 46 201.327 46 200.5C46 199.671 46.6714 199 47.5 199C48.3275 199 49 199.671 49 200.5C49 201.327 48.3275 202 47.5 202Z" fill="#937BFF"/>
<path fill-rule="evenodd" clip-rule="evenodd" d="M21.5 202C20.6714 202 20 201.327 20 200.5C20 199.671 20.6714 199 21.5 199C22.3286 199 23 199.671 23 200.5C23 201.327 22.3286 202 21.5 202Z" fill="#937BFF"/>
<path fill-rule="evenodd" clip-rule="evenodd" d="M1.5 202.132C0.671361 202.132 0 201.46 0 200.632C0 199.803 0.671361 199.132 1.5 199.132C2.32864 199.132 3 199.803 3 200.632C3 201.46 2.32864 202.132 1.5 202.132Z" fill="#937BFF"/>
<path fill-rule="evenodd" clip-rule="evenodd" d="M85.5 229C84.6714 229 84 228.33 84 227.501C84 226.672 84.6714 226 85.5 226C86.3286 226 87 226.672 87 227.501C87 228.33 86.3286 229 85.5 229Z" fill="#937BFF"/>
<path fill-rule="evenodd" clip-rule="evenodd" d="M60.5 229C59.6714 229 59 228.33 59 227.501C59 226.672 59.6714 226 60.5 226C61.3286 226 62 226.672 62 227.501C62 228.33 61.3286 229 60.5 229Z" fill="#937BFF"/>
<path fill-rule="evenodd" clip-rule="evenodd" d="M35.5006 229C34.6716 229 34 228.33 34 227.501C34 226.672 34.6716 226 35.5006 226C36.3284 226 37 226.672 37 227.501C37 228.33 36.3284 229 35.5006 229Z" fill="#937BFF"/>
<path fill-rule="evenodd" clip-rule="evenodd" d="M11.5 229C10.6725 229 10 228.33 10 227.501C10 226.672 10.6725 226 11.5 226C12.3286 226 13 226.672 13 227.501C13 228.33 12.3286 229 11.5 229Z" fill="#937BFF"/>
<path fill-rule="evenodd" clip-rule="evenodd" d="M97.5006 253C96.6716 253 96 252.33 96 251.501C96 250.672 96.6716 250 97.5006 250C98.3284 250 99 250.672 99 251.501C99 252.33 98.3284 253 97.5006 253Z" fill="#937BFF"/>
<path fill-rule="evenodd" clip-rule="evenodd" d="M72.5 253C71.6725 253 71 252.33 71 251.501C71 250.672 71.6725 250 72.5 250C73.3286 250 74 250.672 74 251.501C74 252.33 73.3286 253 72.5 253Z" fill="#937BFF"/>
<path fill-rule="evenodd" clip-rule="evenodd" d="M47.5 253C46.6714 253 46 252.33 46 251.501C46 250.672 46.6714 250 47.5 250C48.3275 250 49 250.672 49 251.501C49 252.33 48.3275 253 47.5 253Z" fill="#937BFF"/>
<path fill-rule="evenodd" clip-rule="evenodd" d="M21.5 253C20.6714 253 20 252.33 20 251.501C20 250.672 20.6714 250 21.5 250C22.3286 250 23 250.672 23 251.501C23 252.33 22.3286 253 21.5 253Z" fill="#937BFF"/>
<path fill-rule="evenodd" clip-rule="evenodd" d="M1.5 253.132C0.671361 253.132 0 252.462 0 251.633C0 250.804 0.671361 250.132 1.5 250.132C2.32864 250.132 3 250.804 3 251.633C3 252.462 2.32864 253.132 1.5 253.132Z" fill="#937BFF"/>
<path fill-rule="evenodd" clip-rule="evenodd" d="M85.5 272C84.6714 272 84 271.327 84 270.5C84 269.671 84.6714 269 85.5 269C86.3286 269 87 269.671 87 270.5C87 271.327 86.3286 272 85.5 272Z" fill="#937BFF"/>
<path fill-rule="evenodd" clip-rule="evenodd" d="M60.5 272C59.6714 272 59 271.327 59 270.5C59 269.671 59.6714 269 60.5 269C61.3286 269 62 269.671 62 270.5C62 271.327 61.3286 272 60.5 272Z" fill="#937BFF"/>
<path fill-rule="evenodd" clip-rule="evenodd" d="M35.5006 272C34.6716 272 34 271.327 34 270.5C34 269.671 34.6716 269 35.5006 269C36.3284 269 37 269.671 37 270.5C37 271.327 36.3284 272 35.5006 272Z" fill="#937BFF"/>
<path fill-rule="evenodd" clip-rule="evenodd" d="M11.5 272C10.6725 272 10 271.327 10 270.5C10 269.671 10.6725 269 11.5 269C12.3286 269 13 269.671 13 270.5C13 271.327 12.3286 272 11.5 272Z" fill="#937BFF"/>
<path fill-rule="evenodd" clip-rule="evenodd" d="M97.5006 298C96.6716 298 96 297.33 96 296.501C96 295.672 96.6716 295 97.5006 295C98.3284 295 99 295.672 99 296.501C99 297.33 98.3284 298 97.5006 298Z" fill="#937BFF"/>
<path fill-rule="evenodd" clip-rule="evenodd" d="M72.5 298C71.6725 298 71 297.33 71 296.501C71 295.672 71.6725 295 72.5 295C73.3286 295 74 295.672 74 296.501C74 297.33 73.3286 298 72.5 298Z" fill="#937BFF"/>
<path fill-rule="evenodd" clip-rule="evenodd" d="M47.5 298C46.6714 298 46 297.33 46 296.501C46 295.672 46.6714 295 47.5 295C48.3275 295 49 295.672 49 296.501C49 297.33 48.3275 298 47.5 298Z" fill="#937BFF"/>
<path fill-rule="evenodd" clip-rule="evenodd" d="M21.5 298C20.6714 298 20 297.33 20 296.501C20 295.672 20.6714 295 21.5 295C22.3286 295 23 295.672 23 296.501C23 297.33 22.3286 298 21.5 298Z" fill="#937BFF"/>
<path fill-rule="evenodd" clip-rule="evenodd" d="M1.5 298.132C0.671361 298.132 0 297.462 0 296.633C0 295.804 0.671361 295.132 1.5 295.132C2.32864 295.132 3 295.804 3 296.633C3 297.462 2.32864 298.132 1.5 298.132Z" fill="#937BFF"/>
<path fill-rule="evenodd" clip-rule="evenodd" d="M85.5 323C84.6714 323 84 322.328 84 321.501C84 320.672 84.6714 320 85.5 320C86.3286 320 87 320.672 87 321.501C87 322.328 86.3286 323 85.5 323Z" fill="#937BFF"/>
<path fill-rule="evenodd" clip-rule="evenodd" d="M60.5 323C59.6714 323 59 322.328 59 321.501C59 320.672 59.6714 320 60.5 320C61.3286 320 62 320.672 62 321.501C62 322.328 61.3286 323 60.5 323Z" fill="#937BFF"/>
<path fill-rule="evenodd" clip-rule="evenodd" d="M35.5006 323C34.6716 323 34 322.328 34 321.501C34 320.672 34.6716 320 35.5006 320C36.3284 320 37 320.672 37 321.501C37 322.328 36.3284 323 35.5006 323Z" fill="#937BFF"/>
<path fill-rule="evenodd" clip-rule="evenodd" d="M11.5 323C10.6725 323 10 322.328 10 321.501C10 320.672 10.6725 320 11.5 320C12.3286 320 13 320.672 13 321.501C13 322.328 12.3286 323 11.5 323Z" fill="#937BFF"/>
<path fill-rule="evenodd" clip-rule="evenodd" d="M97.5006 348C96.6716 348 96 347.327 96 346.5C96 345.671 96.6716 345 97.5006 345C98.3284 345 99 345.671 99 346.5C99 347.327 98.3284 348 97.5006 348Z" fill="#937BFF"/>
<path fill-rule="evenodd" clip-rule="evenodd" d="M72.5 348C71.6725 348 71 347.327 71 346.5C71 345.671 71.6725 345 72.5 345C73.3286 345 74 345.671 74 346.5C74 347.327 73.3286 348 72.5 348Z" fill="#937BFF"/>
<path fill-rule="evenodd" clip-rule="evenodd" d="M47.5 348C46.6714 348 46 347.327 46 346.5C46 345.671 46.6714 345 47.5 345C48.3275 345 49 345.671 49 346.5C49 347.327 48.3275 348 47.5 348Z" fill="#937BFF"/>
<path fill-rule="evenodd" clip-rule="evenodd" d="M21.5 348C20.6714 348 20 347.327 20 346.5C20 345.671 20.6714 345 21.5 345C22.3286 345 23 345.671 23 346.5C23 347.327 22.3286 348 21.5 348Z" fill="#937BFF"/>
<path fill-rule="evenodd" clip-rule="evenodd" d="M1.5 348.132C0.671361 348.132 0 347.46 0 346.632C0 345.803 0.671361 345.132 1.5 345.132C2.32864 345.132 3 345.803 3 346.632C3 347.46 2.32864 348.132 1.5 348.132Z" fill="#937BFF"/>
<path fill-rule="evenodd" clip-rule="evenodd" d="M85.5 373C84.6714 373 84 372.327 84 371.5C84 370.671 84.6714 370 85.5 370C86.3286 370 87 370.671 87 371.5C87 372.327 86.3286 373 85.5 373Z" fill="#937BFF"/>
<path fill-rule="evenodd" clip-rule="evenodd" d="M60.5 373C59.6714 373 59 372.327 59 371.5C59 370.671 59.6714 370 60.5 370C61.3286 370 62 370.671 62 371.5C62 372.327 61.3286 373 60.5 373Z" fill="#937BFF"/>
<path fill-rule="evenodd" clip-rule="evenodd" d="M35.5006 373C34.6716 373 34 372.327 34 371.5C34 370.671 34.6716 370 35.5006 370C36.3284 370 37 370.671 37 371.5C37 372.327 36.3284 373 35.5006 373Z" fill="#937BFF"/>
<path fill-rule="evenodd" clip-rule="evenodd" d="M11.5 373C10.6725 373 10 372.327 10 371.5C10 370.671 10.6725 370 11.5 370C12.3286 370 13 370.671 13 371.5C13 372.327 12.3286 373 11.5 373Z" fill="#937BFF"/>
<path fill-rule="evenodd" clip-rule="evenodd" d="M97.5006 398C96.6716 398 96 397.328 96 396.501C96 395.672 96.6716 395 97.5006 395C98.3284 395 99 395.672 99 396.501C99 397.328 98.3284 398 97.5006 398Z" fill="#937BFF"/>
<path fill-rule="evenodd" clip-rule="evenodd" d="M72.5 398C71.6725 398 71 397.328 71 396.501C71 395.672 71.6725 395 72.5 395C73.3286 395 74 395.672 74 396.501C74 397.328 73.3286 398 72.5 398Z" fill="#937BFF"/>
<path fill-rule="evenodd" clip-rule="evenodd" d="M47.5 398C46.6714 398 46 397.328 46 396.501C46 395.672 46.6714 395 47.5 395C48.3275 395 49 395.672 49 396.501C49 397.328 48.3275 398 47.5 398Z" fill="#937BFF"/>
<path fill-rule="evenodd" clip-rule="evenodd" d="M21.5 398C20.6714 398 20 397.328 20 396.501C20 395.672 20.6714 395 21.5 395C22.3286 395 23 395.672 23 396.501C23 397.328 22.3286 398 21.5 398Z" fill="#937BFF"/>
<path fill-rule="evenodd" clip-rule="evenodd" d="M1.5 398.132C0.671361 398.132 0 397.46 0 396.633C0 395.804 0.671361 395.132 1.5 395.132C2.32864 395.132 3 395.804 3 396.633C3 397.46 2.32864 398.132 1.5 398.132Z" fill="#937BFF"/>
<path fill-rule="evenodd" clip-rule="evenodd" d="M85.5 423C84.6714 423 84 422.33 84 421.501C84 420.672 84.6714 420 85.5 420C86.3286 420 87 420.672 87 421.501C87 422.33 86.3286 423 85.5 423Z" fill="#937BFF"/>
<path fill-rule="evenodd" clip-rule="evenodd" d="M60.5 423C59.6714 423 59 422.33 59 421.501C59 420.672 59.6714 420 60.5 420C61.3286 420 62 420.672 62 421.501C62 422.33 61.3286 423 60.5 423Z" fill="#937BFF"/>
<path fill-rule="evenodd" clip-rule="evenodd" d="M35.5006 423C34.6716 423 34 422.33 34 421.501C34 420.672 34.6716 420 35.5006 420C36.3284 420 37 420.672 37 421.501C37 422.33 36.3284 423 35.5006 423Z" fill="#937BFF"/>
<path fill-rule="evenodd" clip-rule="evenodd" d="M11.5 423C10.6725 423 10 422.33 10 421.501C10 420.672 10.6725 420 11.5 420C12.3286 420 13 420.672 13 421.501C13 422.33 12.3286 423 11.5 423Z" fill="#937BFF"/>
<path fill-rule="evenodd" clip-rule="evenodd" d="M97.5006 447C96.6716 447 96 446.33 96 445.501C96 444.672 96.6716 444 97.5006 444C98.3284 444 99 444.672 99 445.501C99 446.33 98.3284 447 97.5006 447Z" fill="#937BFF"/>
<path fill-rule="evenodd" clip-rule="evenodd" d="M72.5 447C71.6725 447 71 446.33 71 445.501C71 444.672 71.6725 444 72.5 444C73.3286 444 74 444.672 74 445.501C74 446.33 73.3286 447 72.5 447Z" fill="#937BFF"/>
<path fill-rule="evenodd" clip-rule="evenodd" d="M47.5 447C46.6714 447 46 446.33 46 445.501C46 444.672 46.6714 444 47.5 444C48.3275 444 49 444.672 49 445.501C49 446.33 48.3275 447 47.5 447Z" fill="#937BFF"/>
<path fill-rule="evenodd" clip-rule="evenodd" d="M21.5 447C20.6714 447 20 446.33 20 445.501C20 444.672 20.6714 444 21.5 444C22.3286 444 23 444.672 23 445.501C23 446.33 22.3286 447 21.5 447Z" fill="#937BFF"/>
<path fill-rule="evenodd" clip-rule="evenodd" d="M1.5 447.132C0.671361 447.132 0 446.462 0 445.633C0 444.804 0.671361 444.132 1.5 444.132C2.32864 444.132 3 444.804 3 445.633C3 446.462 2.32864 447.132 1.5 447.132Z" fill="#937BFF"/>
<path fill-rule="evenodd" clip-rule="evenodd" d="M85.5 474C84.6714 474 84 473.327 84 472.5C84 471.671 84.6714 471 85.5 471C86.3286 471 87 471.671 87 472.5C87 473.327 86.3286 474 85.5 474Z" fill="#937BFF"/>
<path fill-rule="evenodd" clip-rule="evenodd" d="M60.5 474C59.6714 474 59 473.327 59 472.5C59 471.671 59.6714 471 60.5 471C61.3286 471 62 471.671 62 472.5C62 473.327 61.3286 474 60.5 474Z" fill="#937BFF"/>
<path fill-rule="evenodd" clip-rule="evenodd" d="M35.5006 474C34.6716 474 34 473.327 34 472.5C34 471.671 34.6716 471 35.5006 471C36.3284 471 37 471.671 37 472.5C37 473.327 36.3284 474 35.5006 474Z" fill="#937BFF"/>
<path fill-rule="evenodd" clip-rule="evenodd" d="M11.5 474C10.6725 474 10 473.327 10 472.5C10 471.671 10.6725 471 11.5 471C12.3286 471 13 471.671 13 472.5C13 473.327 12.3286 474 11.5 474Z" fill="#937BFF"/>
<path fill-rule="evenodd" clip-rule="evenodd" d="M97.5006 498C96.6716 498 96 497.327 96 496.5C96 495.671 96.6716 495 97.5006 495C98.3284 495 99 495.671 99 496.5C99 497.327 98.3284 498 97.5006 498Z" fill="#937BFF"/>
<path fill-rule="evenodd" clip-rule="evenodd" d="M72.5 498C71.6725 498 71 497.327 71 496.5C71 495.671 71.6725 495 72.5 495C73.3286 495 74 495.671 74 496.5C74 497.327 73.3286 498 72.5 498Z" fill="#937BFF"/>
<path fill-rule="evenodd" clip-rule="evenodd" d="M47.5 498C46.6714 498 46 497.327 46 496.5C46 495.671 46.6714 495 47.5 495C48.3275 495 49 495.671 49 496.5C49 497.327 48.3275 498 47.5 498Z" fill="#937BFF"/>
<path fill-rule="evenodd" clip-rule="evenodd" d="M21.5 498C20.6714 498 20 497.327 20 496.5C20 495.671 20.6714 495 21.5 495C22.3286 495 23 495.671 23 496.5C23 497.327 22.3286 498 21.5 498Z" fill="#937BFF"/>
<path fill-rule="evenodd" clip-rule="evenodd" d="M1.5 498.132C0.671361 498.132 0 497.46 0 496.632C0 495.803 0.671361 495.132 1.5 495.132C2.32864 495.132 3 495.803 3 496.632C3 497.46 2.32864 498.132 1.5 498.132Z" fill="#937BFF"/>
<path fill-rule="evenodd" clip-rule="evenodd" d="M85.5 525C84.6714 525 84 524.327 84 523.5C84 522.671 84.6714 522 85.5 522C86.3286 522 87 522.671 87 523.5C87 524.327 86.3286 525 85.5 525Z" fill="#937BFF"/>
<path fill-rule="evenodd" clip-rule="evenodd" d="M60.5 525C59.6714 525 59 524.327 59 523.5C59 522.671 59.6714 522 60.5 522C61.3286 522 62 522.671 62 523.5C62 524.327 61.3286 525 60.5 525Z" fill="#937BFF"/>
<path fill-rule="evenodd" clip-rule="evenodd" d="M35.5006 525C34.6716 525 34 524.327 34 523.5C34 522.671 34.6716 522 35.5006 522C36.3284 522 37 522.671 37 523.5C37 524.327 36.3284 525 35.5006 525Z" fill="#937BFF"/>
<path fill-rule="evenodd" clip-rule="evenodd" d="M11.5 525C10.6725 525 10 524.327 10 523.5C10 522.671 10.6725 522 11.5 522C12.3286 522 13 522.671 13 523.5C13 524.327 12.3286 525 11.5 525Z" fill="#937BFF"/>
<path fill-rule="evenodd" clip-rule="evenodd" d="M97.5006 549C96.6716 549 96 548.33 96 547.501C96 546.672 96.6716 546 97.5006 546C98.3284 546 99 546.672 99 547.501C99 548.33 98.3284 549 97.5006 549Z" fill="#937BFF"/>
<path fill-rule="evenodd" clip-rule="evenodd" d="M72.5 549C71.6725 549 71 548.33 71 547.501C71 546.672 71.6725 546 72.5 546C73.3286 546 74 546.672 74 547.501C74 548.33 73.3286 549 72.5 549Z" fill="#937BFF"/>
<path fill-rule="evenodd" clip-rule="evenodd" d="M47.5 549C46.6714 549 46 548.33 46 547.501C46 546.672 46.6714 546 47.5 546C48.3275 546 49 546.672 49 547.501C49 548.33 48.3275 549 47.5 549Z" fill="#937BFF"/>
<path fill-rule="evenodd" clip-rule="evenodd" d="M21.5 549C20.6714 549 20 548.33 20 547.501C20 546.672 20.6714 546 21.5 546C22.3286 546 23 546.672 23 547.501C23 548.33 22.3286 549 21.5 549Z" fill="#937BFF"/>
<path fill-rule="evenodd" clip-rule="evenodd" d="M1.5 549.132C0.671361 549.132 0 548.462 0 547.633C0 546.804 0.671361 546.132 1.5 546.132C2.32864 546.132 3 546.804 3 547.633C3 548.462 2.32864 549.132 1.5 549.132Z" fill="#937BFF"/>
<path fill-rule="evenodd" clip-rule="evenodd" d="M85.5 574C84.6714 574 84 573.33 84 572.501C84 571.672 84.6714 571 85.5 571C86.3286 571 87 571.672 87 572.501C87 573.33 86.3286 574 85.5 574Z" fill="#937BFF"/>
<path fill-rule="evenodd" clip-rule="evenodd" d="M60.5 574C59.6714 574 59 573.33 59 572.501C59 571.672 59.6714 571 60.5 571C61.3286 571 62 571.672 62 572.501C62 573.33 61.3286 574 60.5 574Z" fill="#937BFF"/>
<path fill-rule="evenodd" clip-rule="evenodd" d="M35.5006 574C34.6716 574 34 573.33 34 572.501C34 571.672 34.6716 571 35.5006 571C36.3284 571 37 571.672 37 572.501C37 573.33 36.3284 574 35.5006 574Z" fill="#937BFF"/>
<path fill-rule="evenodd" clip-rule="evenodd" d="M11.5 574C10.6725 574 10 573.33 10 572.501C10 571.672 10.6725 571 11.5 571C12.3286 571 13 571.672 13 572.501C13 573.33 12.3286 574 11.5 574Z" fill="#937BFF"/>
<path fill-rule="evenodd" clip-rule="evenodd" d="M97.5006 599C96.6716 599 96 598.327 96 597.5C96 596.671 96.6716 596 97.5006 596C98.3284 596 99 596.671 99 597.5C99 598.327 98.3284 599 97.5006 599Z" fill="#937BFF"/>
<path fill-rule="evenodd" clip-rule="evenodd" d="M72.5 599C71.6725 599 71 598.327 71 597.5C71 596.671 71.6725 596 72.5 596C73.3286 596 74 596.671 74 597.5C74 598.327 73.3286 599 72.5 599Z" fill="#937BFF"/>
<path fill-rule="evenodd" clip-rule="evenodd" d="M47.5 599C46.6714 599 46 598.327 46 597.5C46 596.671 46.6714 596 47.5 596C48.3275 596 49 596.671 49 597.5C49 598.327 48.3275 599 47.5 599Z" fill="#937BFF"/>
<path fill-rule="evenodd" clip-rule="evenodd" d="M21.5 599C20.6714 599 20 598.327 20 597.5C20 596.671 20.6714 596 21.5 596C22.3286 596 23 596.671 23 597.5C23 598.327 22.3286 599 21.5 599Z" fill="#937BFF"/>
<path fill-rule="evenodd" clip-rule="evenodd" d="M1.5 599.132C0.671361 599.132 0 598.46 0 597.632C0 596.803 0.671361 596.132 1.5 596.132C2.32864 596.132 3 596.803 3 597.632C3 598.46 2.32864 599.132 1.5 599.132Z" fill="#937BFF"/>
<path fill-rule="evenodd" clip-rule="evenodd" d="M85.5 625C84.6714 625 84 624.327 84 623.5C84 622.671 84.6714 622 85.5 622C86.3286 622 87 622.671 87 623.5C87 624.327 86.3286 625 85.5 625Z" fill="#937BFF"/>
<path fill-rule="evenodd" clip-rule="evenodd" d="M60.5 625C59.6714 625 59 624.327 59 623.5C59 622.671 59.6714 622 60.5 622C61.3286 622 62 622.671 62 623.5C62 624.327 61.3286 625 60.5 625Z" fill="#937BFF"/>
<path fill-rule="evenodd" clip-rule="evenodd" d="M35.5006 625C34.6716 625 34 624.327 34 623.5C34 622.671 34.6716 622 35.5006 622C36.3284 622 37 622.671 37 623.5C37 624.327 36.3284 625 35.5006 625Z" fill="#937BFF"/>
<path fill-rule="evenodd" clip-rule="evenodd" d="M11.5 625C10.6725 625 10 624.327 10 623.5C10 622.671 10.6725 622 11.5 622C12.3286 622 13 622.671 13 623.5C13 624.327 12.3286 625 11.5 625Z" fill="#937BFF"/>
<path fill-rule="evenodd" clip-rule="evenodd" d="M97.5006 649C96.6716 649 96 648.327 96 647.5C96 646.671 96.6716 646 97.5006 646C98.3284 646 99 646.671 99 647.5C99 648.327 98.3284 649 97.5006 649Z" fill="#937BFF"/>
<path fill-rule="evenodd" clip-rule="evenodd" d="M72.5 649C71.6725 649 71 648.327 71 647.5C71 646.671 71.6725 646 72.5 646C73.3286 646 74 646.671 74 647.5C74 648.327 73.3286 649 72.5 649Z" fill="#937BFF"/>
<path fill-rule="evenodd" clip-rule="evenodd" d="M47.5 649C46.6714 649 46 648.327 46 647.5C46 646.671 46.6714 646 47.5 646C48.3275 646 49 646.671 49 647.5C49 648.327 48.3275 649 47.5 649Z" fill="#937BFF"/>
<path fill-rule="evenodd" clip-rule="evenodd" d="M21.5 649C20.6714 649 20 648.327 20 647.5C20 646.671 20.6714 646 21.5 646C22.3286 646 23 646.671 23 647.5C23 648.327 22.3286 649 21.5 649Z" fill="#937BFF"/>
<path fill-rule="evenodd" clip-rule="evenodd" d="M1.5 649.132C0.671361 649.132 0 648.46 0 647.632C0 646.803 0.671361 646.132 1.5 646.132C2.32864 646.132 3 646.803 3 647.632C3 648.46 2.32864 649.132 1.5 649.132Z" fill="#937BFF"/>
<path fill-rule="evenodd" clip-rule="evenodd" d="M85.5 674C84.6714 674 84 673.33 84 672.501C84 671.672 84.6714 671 85.5 671C86.3286 671 87 671.672 87 672.501C87 673.33 86.3286 674 85.5 674Z" fill="#937BFF"/>
<path fill-rule="evenodd" clip-rule="evenodd" d="M60.5 674C59.6714 674 59 673.33 59 672.501C59 671.672 59.6714 671 60.5 671C61.3286 671 62 671.672 62 672.501C62 673.33 61.3286 674 60.5 674Z" fill="#937BFF"/>
<path fill-rule="evenodd" clip-rule="evenodd" d="M35.5006 674C34.6716 674 34 673.33 34 672.501C34 671.672 34.6716 671 35.5006 671C36.3284 671 37 671.672 37 672.501C37 673.33 36.3284 674 35.5006 674Z" fill="#937BFF"/>
<path fill-rule="evenodd" clip-rule="evenodd" d="M1.5 674.132C0.672535 674.132 0 673.462 0 672.633C0 671.804 0.672535 671.132 1.5 671.132C2.32864 671.132 3 671.804 3 672.633C3 673.462 2.32864 674.132 1.5 674.132Z" fill="#937BFF"/>
<path fill-rule="evenodd" clip-rule="evenodd" d="M97.5006 699C96.6716 699 96 698.33 96 697.501C96 696.672 96.6716 696 97.5006 696C98.3284 696 99 696.672 99 697.501C99 698.33 98.3284 699 97.5006 699Z" fill="#937BFF"/>
<path fill-rule="evenodd" clip-rule="evenodd" d="M72.5 699C71.6725 699 71 698.33 71 697.501C71 696.672 71.6725 696 72.5 696C73.3286 696 74 696.672 74 697.501C74 698.33 73.3286 699 72.5 699Z" fill="#937BFF"/>
<path fill-rule="evenodd" clip-rule="evenodd" d="M47.5 699C46.6714 699 46 698.33 46 697.501C46 696.672 46.6714 696 47.5 696C48.3275 696 49 696.672 49 697.501C49 698.33 48.3275 699 47.5 699Z" fill="#937BFF"/>
<path fill-rule="evenodd" clip-rule="evenodd" d="M21.5 699C20.6714 699 20 698.33 20 697.501C20 696.672 20.6714 696 21.5 696C22.3286 696 23 696.672 23 697.501C23 698.33 22.3286 699 21.5 699Z" fill="#937BFF"/>
<path fill-rule="evenodd" clip-rule="evenodd" d="M1.5 699.132C0.671361 699.132 0 698.462 0 697.633C0 696.804 0.671361 696.132 1.5 696.132C2.32864 696.132 3 696.804 3 697.633C3 698.462 2.32864 699.132 1.5 699.132Z" fill="#937BFF"/>
</g>
</svg>
