<svg width="98" height="602" viewBox="0 0 98 602" fill="none" xmlns="http://www.w3.org/2000/svg">
<g opacity="0.374256">
<path fill-rule="evenodd" clip-rule="evenodd" d="M96.5006 3.86792C95.6716 3.86792 95 3.19538 95 2.36792C95 1.53928 95.6716 0.86792 96.5006 0.86792C97.3284 0.86792 98 1.53928 98 2.36792C98 3.19538 97.3284 3.86792 96.5006 3.86792Z" fill="#937BFF"/>
<path fill-rule="evenodd" clip-rule="evenodd" d="M71.5 3.86792C70.6725 3.86792 70 3.19538 70 2.36792C70 1.53928 70.6725 0.86792 71.5 0.86792C72.3286 0.86792 73 1.53928 73 2.36792C73 3.19538 72.3286 3.86792 71.5 3.86792Z" fill="#937BFF"/>
<path fill-rule="evenodd" clip-rule="evenodd" d="M46.5 3.86792C45.6714 3.86792 45 3.19538 45 2.36792C45 1.53928 45.6714 0.86792 46.5 0.86792C47.3275 0.86792 48 1.53928 48 2.36792C48 3.19538 47.3275 3.86792 46.5 3.86792Z" fill="#937BFF"/>
<path fill-rule="evenodd" clip-rule="evenodd" d="M20.5 3.86792C19.6714 3.86792 19 3.19538 19 2.36792C19 1.53928 19.6714 0.86792 20.5 0.86792C21.3286 0.86792 22 1.53928 22 2.36792C22 3.19538 21.3286 3.86792 20.5 3.86792Z" fill="#937BFF"/>
<path fill-rule="evenodd" clip-rule="evenodd" d="M0.5 4C-0.328639 4 -1 3.32746 -1 2.5C-1 1.67136 -0.328639 1 0.5 1C1.32864 1 2 1.67136 2 2.5C2 3.32746 1.32864 4 0.5 4Z" fill="#937BFF"/>
<path fill-rule="evenodd" clip-rule="evenodd" d="M84.5 30.8679C83.6714 30.8679 83 30.1954 83 29.3679C83 28.5393 83.6714 27.8679 84.5 27.8679C85.3286 27.8679 86 28.5393 86 29.3679C86 30.1954 85.3286 30.8679 84.5 30.8679Z" fill="#937BFF"/>
<path fill-rule="evenodd" clip-rule="evenodd" d="M59.5 30.8679C58.6714 30.8679 58 30.1954 58 29.3679C58 28.5393 58.6714 27.8679 59.5 27.8679C60.3286 27.8679 61 28.5393 61 29.3679C61 30.1954 60.3286 30.8679 59.5 30.8679Z" fill="#937BFF"/>
<path fill-rule="evenodd" clip-rule="evenodd" d="M34.5006 30.8679C33.6716 30.8679 33 30.1954 33 29.3679C33 28.5393 33.6716 27.8679 34.5006 27.8679C35.3284 27.8679 36 28.5393 36 29.3679C36 30.1954 35.3284 30.8679 34.5006 30.8679Z" fill="#937BFF"/>
<path fill-rule="evenodd" clip-rule="evenodd" d="M10.5 30.8679C9.67254 30.8679 9 30.1954 9 29.3679C9 28.5393 9.67254 27.8679 10.5 27.8679C11.3286 27.8679 12 28.5393 12 29.3679C12 30.1954 11.3286 30.8679 10.5 30.8679Z" fill="#937BFF"/>
<path fill-rule="evenodd" clip-rule="evenodd" d="M96.5006 54.8679C95.6716 54.8679 95 54.1975 95 53.3685C95 52.5395 95.6716 51.8679 96.5006 51.8679C97.3284 51.8679 98 52.5395 98 53.3685C98 54.1975 97.3284 54.8679 96.5006 54.8679Z" fill="#937BFF"/>
<path fill-rule="evenodd" clip-rule="evenodd" d="M71.5 54.8679C70.6725 54.8679 70 54.1975 70 53.3685C70 52.5395 70.6725 51.8679 71.5 51.8679C72.3286 51.8679 73 52.5395 73 53.3685C73 54.1975 72.3286 54.8679 71.5 54.8679Z" fill="#937BFF"/>
<path fill-rule="evenodd" clip-rule="evenodd" d="M46.5 54.8679C45.6714 54.8679 45 54.1975 45 53.3685C45 52.5395 45.6714 51.8679 46.5 51.8679C47.3275 51.8679 48 52.5395 48 53.3685C48 54.1975 47.3275 54.8679 46.5 54.8679Z" fill="#937BFF"/>
<path fill-rule="evenodd" clip-rule="evenodd" d="M20.5 54.8679C19.6714 54.8679 19 54.1975 19 53.3685C19 52.5395 19.6714 51.8679 20.5 51.8679C21.3286 51.8679 22 52.5395 22 53.3685C22 54.1975 21.3286 54.8679 20.5 54.8679Z" fill="#937BFF"/>
<path fill-rule="evenodd" clip-rule="evenodd" d="M0.5 55C-0.328639 55 -1 54.3295 -1 53.5006C-1 52.6716 -0.328639 52 0.5 52C1.32864 52 2 52.6716 2 53.5006C2 54.3295 1.32864 55 0.5 55Z" fill="#937BFF"/>
<path fill-rule="evenodd" clip-rule="evenodd" d="M84.5 79.8679C83.6714 79.8679 83 79.1975 83 78.3685C83 77.5395 83.6714 76.8679 84.5 76.8679C85.3286 76.8679 86 77.5395 86 78.3685C86 79.1975 85.3286 79.8679 84.5 79.8679Z" fill="#937BFF"/>
<path fill-rule="evenodd" clip-rule="evenodd" d="M59.5 79.8679C58.6714 79.8679 58 79.1975 58 78.3685C58 77.5395 58.6714 76.8679 59.5 76.8679C60.3286 76.8679 61 77.5395 61 78.3685C61 79.1975 60.3286 79.8679 59.5 79.8679Z" fill="#937BFF"/>
<path fill-rule="evenodd" clip-rule="evenodd" d="M34.5006 79.8679C33.6716 79.8679 33 79.1975 33 78.3685C33 77.5395 33.6716 76.8679 34.5006 76.8679C35.3284 76.8679 36 77.5395 36 78.3685C36 79.1975 35.3284 79.8679 34.5006 79.8679Z" fill="#937BFF"/>
<path fill-rule="evenodd" clip-rule="evenodd" d="M10.5 79.8679C9.67254 79.8679 9 79.1975 9 78.3685C9 77.5395 9.67254 76.8679 10.5 76.8679C11.3286 76.8679 12 77.5395 12 78.3685C12 79.1975 11.3286 79.8679 10.5 79.8679Z" fill="#937BFF"/>
<path fill-rule="evenodd" clip-rule="evenodd" d="M96.5006 105.868C95.6716 105.868 95 105.195 95 104.368C95 103.539 95.6716 102.868 96.5006 102.868C97.3284 102.868 98 103.539 98 104.368C98 105.195 97.3284 105.868 96.5006 105.868Z" fill="#937BFF"/>
<path fill-rule="evenodd" clip-rule="evenodd" d="M71.5 105.868C70.6725 105.868 70 105.195 70 104.368C70 103.539 70.6725 102.868 71.5 102.868C72.3286 102.868 73 103.539 73 104.368C73 105.195 72.3286 105.868 71.5 105.868Z" fill="#937BFF"/>
<path fill-rule="evenodd" clip-rule="evenodd" d="M46.5 105.868C45.6714 105.868 45 105.195 45 104.368C45 103.539 45.6714 102.868 46.5 102.868C47.3275 102.868 48 103.539 48 104.368C48 105.195 47.3275 105.868 46.5 105.868Z" fill="#937BFF"/>
<path fill-rule="evenodd" clip-rule="evenodd" d="M20.5 105.868C19.6714 105.868 19 105.195 19 104.368C19 103.539 19.6714 102.868 20.5 102.868C21.3286 102.868 22 103.539 22 104.368C22 105.195 21.3286 105.868 20.5 105.868Z" fill="#937BFF"/>
<path fill-rule="evenodd" clip-rule="evenodd" d="M0.5 106C-0.328639 106 -1 105.327 -1 104.5C-1 103.671 -0.328639 103 0.5 103C1.32864 103 2 103.671 2 104.5C2 105.327 1.32864 106 0.5 106Z" fill="#937BFF"/>
<path fill-rule="evenodd" clip-rule="evenodd" d="M84.5 130.868C83.6714 130.868 83 130.195 83 129.368C83 128.539 83.6714 127.868 84.5 127.868C85.3286 127.868 86 128.539 86 129.368C86 130.195 85.3286 130.868 84.5 130.868Z" fill="#937BFF"/>
<path fill-rule="evenodd" clip-rule="evenodd" d="M59.5 130.868C58.6714 130.868 58 130.195 58 129.368C58 128.539 58.6714 127.868 59.5 127.868C60.3286 127.868 61 128.539 61 129.368C61 130.195 60.3286 130.868 59.5 130.868Z" fill="#937BFF"/>
<path fill-rule="evenodd" clip-rule="evenodd" d="M34.5006 130.868C33.6716 130.868 33 130.195 33 129.368C33 128.539 33.6716 127.868 34.5006 127.868C35.3284 127.868 36 128.539 36 129.368C36 130.195 35.3284 130.868 34.5006 130.868Z" fill="#937BFF"/>
<path fill-rule="evenodd" clip-rule="evenodd" d="M10.5 130.868C9.67254 130.868 9 130.195 9 129.368C9 128.539 9.67254 127.868 10.5 127.868C11.3286 127.868 12 128.539 12 129.368C12 130.195 11.3286 130.868 10.5 130.868Z" fill="#937BFF"/>
<path fill-rule="evenodd" clip-rule="evenodd" d="M96.5006 154.868C95.6716 154.868 95 154.195 95 153.368C95 152.539 95.6716 151.868 96.5006 151.868C97.3284 151.868 98 152.539 98 153.368C98 154.195 97.3284 154.868 96.5006 154.868Z" fill="#937BFF"/>
<path fill-rule="evenodd" clip-rule="evenodd" d="M71.5 154.868C70.6725 154.868 70 154.195 70 153.368C70 152.539 70.6725 151.868 71.5 151.868C72.3286 151.868 73 152.539 73 153.368C73 154.195 72.3286 154.868 71.5 154.868Z" fill="#937BFF"/>
<path fill-rule="evenodd" clip-rule="evenodd" d="M46.5 154.868C45.6714 154.868 45 154.195 45 153.368C45 152.539 45.6714 151.868 46.5 151.868C47.3275 151.868 48 152.539 48 153.368C48 154.195 47.3275 154.868 46.5 154.868Z" fill="#937BFF"/>
<path fill-rule="evenodd" clip-rule="evenodd" d="M20.5 154.868C19.6714 154.868 19 154.195 19 153.368C19 152.539 19.6714 151.868 20.5 151.868C21.3286 151.868 22 152.539 22 153.368C22 154.195 21.3286 154.868 20.5 154.868Z" fill="#937BFF"/>
<path fill-rule="evenodd" clip-rule="evenodd" d="M0.5 155C-0.328639 155 -1 154.327 -1 153.5C-1 152.671 -0.328639 152 0.5 152C1.32864 152 2 152.671 2 153.5C2 154.327 1.32864 155 0.5 155Z" fill="#937BFF"/>
<path fill-rule="evenodd" clip-rule="evenodd" d="M84.5 181.868C83.6714 181.868 83 181.197 83 180.369C83 179.54 83.6714 178.868 84.5 178.868C85.3286 178.868 86 179.54 86 180.369C86 181.197 85.3286 181.868 84.5 181.868Z" fill="#937BFF"/>
<path fill-rule="evenodd" clip-rule="evenodd" d="M59.5 181.868C58.6714 181.868 58 181.197 58 180.369C58 179.54 58.6714 178.868 59.5 178.868C60.3286 178.868 61 179.54 61 180.369C61 181.197 60.3286 181.868 59.5 181.868Z" fill="#937BFF"/>
<path fill-rule="evenodd" clip-rule="evenodd" d="M34.5006 181.868C33.6716 181.868 33 181.197 33 180.369C33 179.54 33.6716 178.868 34.5006 178.868C35.3284 178.868 36 179.54 36 180.369C36 181.197 35.3284 181.868 34.5006 181.868Z" fill="#937BFF"/>
<path fill-rule="evenodd" clip-rule="evenodd" d="M10.5 181.868C9.67254 181.868 9 181.197 9 180.369C9 179.54 9.67254 178.868 10.5 178.868C11.3286 178.868 12 179.54 12 180.369C12 181.197 11.3286 181.868 10.5 181.868Z" fill="#937BFF"/>
<path fill-rule="evenodd" clip-rule="evenodd" d="M96.5006 205.868C95.6716 205.868 95 205.197 95 204.369C95 203.54 95.6716 202.868 96.5006 202.868C97.3284 202.868 98 203.54 98 204.369C98 205.197 97.3284 205.868 96.5006 205.868Z" fill="#937BFF"/>
<path fill-rule="evenodd" clip-rule="evenodd" d="M71.5 205.868C70.6725 205.868 70 205.197 70 204.369C70 203.54 70.6725 202.868 71.5 202.868C72.3286 202.868 73 203.54 73 204.369C73 205.197 72.3286 205.868 71.5 205.868Z" fill="#937BFF"/>
<path fill-rule="evenodd" clip-rule="evenodd" d="M46.5 205.868C45.6714 205.868 45 205.197 45 204.369C45 203.54 45.6714 202.868 46.5 202.868C47.3275 202.868 48 203.54 48 204.369C48 205.197 47.3275 205.868 46.5 205.868Z" fill="#937BFF"/>
<path fill-rule="evenodd" clip-rule="evenodd" d="M20.5 205.868C19.6714 205.868 19 205.197 19 204.369C19 203.54 19.6714 202.868 20.5 202.868C21.3286 202.868 22 203.54 22 204.369C22 205.197 21.3286 205.868 20.5 205.868Z" fill="#937BFF"/>
<path fill-rule="evenodd" clip-rule="evenodd" d="M0.5 206C-0.328639 206 -1 205.33 -1 204.501C-1 203.672 -0.328639 203 0.5 203C1.32864 203 2 203.672 2 204.501C2 205.33 1.32864 206 0.5 206Z" fill="#937BFF"/>
<path fill-rule="evenodd" clip-rule="evenodd" d="M84.5 224.868C83.6714 224.868 83 224.195 83 223.368C83 222.539 83.6714 221.868 84.5 221.868C85.3286 221.868 86 222.539 86 223.368C86 224.195 85.3286 224.868 84.5 224.868Z" fill="#937BFF"/>
<path fill-rule="evenodd" clip-rule="evenodd" d="M59.5 224.868C58.6714 224.868 58 224.195 58 223.368C58 222.539 58.6714 221.868 59.5 221.868C60.3286 221.868 61 222.539 61 223.368C61 224.195 60.3286 224.868 59.5 224.868Z" fill="#937BFF"/>
<path fill-rule="evenodd" clip-rule="evenodd" d="M34.5006 224.868C33.6716 224.868 33 224.195 33 223.368C33 222.539 33.6716 221.868 34.5006 221.868C35.3284 221.868 36 222.539 36 223.368C36 224.195 35.3284 224.868 34.5006 224.868Z" fill="#937BFF"/>
<path fill-rule="evenodd" clip-rule="evenodd" d="M10.5 224.868C9.67254 224.868 9 224.195 9 223.368C9 222.539 9.67254 221.868 10.5 221.868C11.3286 221.868 12 222.539 12 223.368C12 224.195 11.3286 224.868 10.5 224.868Z" fill="#937BFF"/>
<path fill-rule="evenodd" clip-rule="evenodd" d="M96.5006 250.868C95.6716 250.868 95 250.197 95 249.369C95 248.54 95.6716 247.868 96.5006 247.868C97.3284 247.868 98 248.54 98 249.369C98 250.197 97.3284 250.868 96.5006 250.868Z" fill="#937BFF"/>
<path fill-rule="evenodd" clip-rule="evenodd" d="M71.5 250.868C70.6725 250.868 70 250.197 70 249.369C70 248.54 70.6725 247.868 71.5 247.868C72.3286 247.868 73 248.54 73 249.369C73 250.197 72.3286 250.868 71.5 250.868Z" fill="#937BFF"/>
<path fill-rule="evenodd" clip-rule="evenodd" d="M46.5 250.868C45.6714 250.868 45 250.197 45 249.369C45 248.54 45.6714 247.868 46.5 247.868C47.3275 247.868 48 248.54 48 249.369C48 250.197 47.3275 250.868 46.5 250.868Z" fill="#937BFF"/>
<path fill-rule="evenodd" clip-rule="evenodd" d="M20.5 250.868C19.6714 250.868 19 250.197 19 249.369C19 248.54 19.6714 247.868 20.5 247.868C21.3286 247.868 22 248.54 22 249.369C22 250.197 21.3286 250.868 20.5 250.868Z" fill="#937BFF"/>
<path fill-rule="evenodd" clip-rule="evenodd" d="M0.5 251C-0.328639 251 -1 250.33 -1 249.501C-1 248.672 -0.328639 248 0.5 248C1.32864 248 2 248.672 2 249.501C2 250.33 1.32864 251 0.5 251Z" fill="#937BFF"/>
<path fill-rule="evenodd" clip-rule="evenodd" d="M84.5 275.868C83.6714 275.868 83 275.196 83 274.369C83 273.54 83.6714 272.868 84.5 272.868C85.3286 272.868 86 273.54 86 274.369C86 275.196 85.3286 275.868 84.5 275.868Z" fill="#937BFF"/>
<path fill-rule="evenodd" clip-rule="evenodd" d="M59.5 275.868C58.6714 275.868 58 275.196 58 274.369C58 273.54 58.6714 272.868 59.5 272.868C60.3286 272.868 61 273.54 61 274.369C61 275.196 60.3286 275.868 59.5 275.868Z" fill="#937BFF"/>
<path fill-rule="evenodd" clip-rule="evenodd" d="M34.5006 275.868C33.6716 275.868 33 275.196 33 274.369C33 273.54 33.6716 272.868 34.5006 272.868C35.3284 272.868 36 273.54 36 274.369C36 275.196 35.3284 275.868 34.5006 275.868Z" fill="#937BFF"/>
<path fill-rule="evenodd" clip-rule="evenodd" d="M10.5 275.868C9.67254 275.868 9 275.196 9 274.369C9 273.54 9.67254 272.868 10.5 272.868C11.3286 272.868 12 273.54 12 274.369C12 275.196 11.3286 275.868 10.5 275.868Z" fill="#937BFF"/>
<path fill-rule="evenodd" clip-rule="evenodd" d="M96.5006 300.868C95.6716 300.868 95 300.195 95 299.368C95 298.539 95.6716 297.868 96.5006 297.868C97.3284 297.868 98 298.539 98 299.368C98 300.195 97.3284 300.868 96.5006 300.868Z" fill="#937BFF"/>
<path fill-rule="evenodd" clip-rule="evenodd" d="M71.5 300.868C70.6725 300.868 70 300.195 70 299.368C70 298.539 70.6725 297.868 71.5 297.868C72.3286 297.868 73 298.539 73 299.368C73 300.195 72.3286 300.868 71.5 300.868Z" fill="#937BFF"/>
<path fill-rule="evenodd" clip-rule="evenodd" d="M46.5 300.868C45.6714 300.868 45 300.195 45 299.368C45 298.539 45.6714 297.868 46.5 297.868C47.3275 297.868 48 298.539 48 299.368C48 300.195 47.3275 300.868 46.5 300.868Z" fill="#937BFF"/>
<path fill-rule="evenodd" clip-rule="evenodd" d="M20.5 300.868C19.6714 300.868 19 300.195 19 299.368C19 298.539 19.6714 297.868 20.5 297.868C21.3286 297.868 22 298.539 22 299.368C22 300.195 21.3286 300.868 20.5 300.868Z" fill="#937BFF"/>
<path fill-rule="evenodd" clip-rule="evenodd" d="M0.5 301C-0.328639 301 -1 300.327 -1 299.5C-1 298.671 -0.328639 298 0.5 298C1.32864 298 2 298.671 2 299.5C2 300.327 1.32864 301 0.5 301Z" fill="#937BFF"/>
<path fill-rule="evenodd" clip-rule="evenodd" d="M84.5 325.868C83.6714 325.868 83 325.195 83 324.368C83 323.539 83.6714 322.868 84.5 322.868C85.3286 322.868 86 323.539 86 324.368C86 325.195 85.3286 325.868 84.5 325.868Z" fill="#937BFF"/>
<path fill-rule="evenodd" clip-rule="evenodd" d="M59.5 325.868C58.6714 325.868 58 325.195 58 324.368C58 323.539 58.6714 322.868 59.5 322.868C60.3286 322.868 61 323.539 61 324.368C61 325.195 60.3286 325.868 59.5 325.868Z" fill="#937BFF"/>
<path fill-rule="evenodd" clip-rule="evenodd" d="M34.5006 325.868C33.6716 325.868 33 325.195 33 324.368C33 323.539 33.6716 322.868 34.5006 322.868C35.3284 322.868 36 323.539 36 324.368C36 325.195 35.3284 325.868 34.5006 325.868Z" fill="#937BFF"/>
<path fill-rule="evenodd" clip-rule="evenodd" d="M10.5 325.868C9.67254 325.868 9 325.195 9 324.368C9 323.539 9.67254 322.868 10.5 322.868C11.3286 322.868 12 323.539 12 324.368C12 325.195 11.3286 325.868 10.5 325.868Z" fill="#937BFF"/>
<path fill-rule="evenodd" clip-rule="evenodd" d="M96.5006 350.868C95.6716 350.868 95 350.196 95 349.369C95 348.54 95.6716 347.868 96.5006 347.868C97.3284 347.868 98 348.54 98 349.369C98 350.196 97.3284 350.868 96.5006 350.868Z" fill="#937BFF"/>
<path fill-rule="evenodd" clip-rule="evenodd" d="M71.5 350.868C70.6725 350.868 70 350.196 70 349.369C70 348.54 70.6725 347.868 71.5 347.868C72.3286 347.868 73 348.54 73 349.369C73 350.196 72.3286 350.868 71.5 350.868Z" fill="#937BFF"/>
<path fill-rule="evenodd" clip-rule="evenodd" d="M46.5 350.868C45.6714 350.868 45 350.196 45 349.369C45 348.54 45.6714 347.868 46.5 347.868C47.3275 347.868 48 348.54 48 349.369C48 350.196 47.3275 350.868 46.5 350.868Z" fill="#937BFF"/>
<path fill-rule="evenodd" clip-rule="evenodd" d="M20.5 350.868C19.6714 350.868 19 350.196 19 349.369C19 348.54 19.6714 347.868 20.5 347.868C21.3286 347.868 22 348.54 22 349.369C22 350.196 21.3286 350.868 20.5 350.868Z" fill="#937BFF"/>
<path fill-rule="evenodd" clip-rule="evenodd" d="M0.5 351C-0.328639 351 -1 350.328 -1 349.501C-1 348.672 -0.328639 348 0.5 348C1.32864 348 2 348.672 2 349.501C2 350.328 1.32864 351 0.5 351Z" fill="#937BFF"/>
<path fill-rule="evenodd" clip-rule="evenodd" d="M84.5 375.868C83.6714 375.868 83 375.197 83 374.369C83 373.54 83.6714 372.868 84.5 372.868C85.3286 372.868 86 373.54 86 374.369C86 375.197 85.3286 375.868 84.5 375.868Z" fill="#937BFF"/>
<path fill-rule="evenodd" clip-rule="evenodd" d="M59.5 375.868C58.6714 375.868 58 375.197 58 374.369C58 373.54 58.6714 372.868 59.5 372.868C60.3286 372.868 61 373.54 61 374.369C61 375.197 60.3286 375.868 59.5 375.868Z" fill="#937BFF"/>
<path fill-rule="evenodd" clip-rule="evenodd" d="M34.5006 375.868C33.6716 375.868 33 375.197 33 374.369C33 373.54 33.6716 372.868 34.5006 372.868C35.3284 372.868 36 373.54 36 374.369C36 375.197 35.3284 375.868 34.5006 375.868Z" fill="#937BFF"/>
<path fill-rule="evenodd" clip-rule="evenodd" d="M10.5 375.868C9.67254 375.868 9 375.197 9 374.369C9 373.54 9.67254 372.868 10.5 372.868C11.3286 372.868 12 373.54 12 374.369C12 375.197 11.3286 375.868 10.5 375.868Z" fill="#937BFF"/>
<path fill-rule="evenodd" clip-rule="evenodd" d="M96.5006 399.868C95.6716 399.868 95 399.197 95 398.369C95 397.54 95.6716 396.868 96.5006 396.868C97.3284 396.868 98 397.54 98 398.369C98 399.197 97.3284 399.868 96.5006 399.868Z" fill="#937BFF"/>
<path fill-rule="evenodd" clip-rule="evenodd" d="M71.5 399.868C70.6725 399.868 70 399.197 70 398.369C70 397.54 70.6725 396.868 71.5 396.868C72.3286 396.868 73 397.54 73 398.369C73 399.197 72.3286 399.868 71.5 399.868Z" fill="#937BFF"/>
<path fill-rule="evenodd" clip-rule="evenodd" d="M46.5 399.868C45.6714 399.868 45 399.197 45 398.369C45 397.54 45.6714 396.868 46.5 396.868C47.3275 396.868 48 397.54 48 398.369C48 399.197 47.3275 399.868 46.5 399.868Z" fill="#937BFF"/>
<path fill-rule="evenodd" clip-rule="evenodd" d="M20.5 399.868C19.6714 399.868 19 399.197 19 398.369C19 397.54 19.6714 396.868 20.5 396.868C21.3286 396.868 22 397.54 22 398.369C22 399.197 21.3286 399.868 20.5 399.868Z" fill="#937BFF"/>
<path fill-rule="evenodd" clip-rule="evenodd" d="M0.5 400C-0.328639 400 -1 399.33 -1 398.501C-1 397.672 -0.328639 397 0.5 397C1.32864 397 2 397.672 2 398.501C2 399.33 1.32864 400 0.5 400Z" fill="#937BFF"/>
<path fill-rule="evenodd" clip-rule="evenodd" d="M84.5 426.868C83.6714 426.868 83 426.195 83 425.368C83 424.539 83.6714 423.868 84.5 423.868C85.3286 423.868 86 424.539 86 425.368C86 426.195 85.3286 426.868 84.5 426.868Z" fill="#937BFF"/>
<path fill-rule="evenodd" clip-rule="evenodd" d="M59.5 426.868C58.6714 426.868 58 426.195 58 425.368C58 424.539 58.6714 423.868 59.5 423.868C60.3286 423.868 61 424.539 61 425.368C61 426.195 60.3286 426.868 59.5 426.868Z" fill="#937BFF"/>
<path fill-rule="evenodd" clip-rule="evenodd" d="M34.5006 426.868C33.6716 426.868 33 426.195 33 425.368C33 424.539 33.6716 423.868 34.5006 423.868C35.3284 423.868 36 424.539 36 425.368C36 426.195 35.3284 426.868 34.5006 426.868Z" fill="#937BFF"/>
<path fill-rule="evenodd" clip-rule="evenodd" d="M10.5 426.868C9.67254 426.868 9 426.195 9 425.368C9 424.539 9.67254 423.868 10.5 423.868C11.3286 423.868 12 424.539 12 425.368C12 426.195 11.3286 426.868 10.5 426.868Z" fill="#937BFF"/>
<path fill-rule="evenodd" clip-rule="evenodd" d="M96.5006 450.868C95.6716 450.868 95 450.195 95 449.368C95 448.539 95.6716 447.868 96.5006 447.868C97.3284 447.868 98 448.539 98 449.368C98 450.195 97.3284 450.868 96.5006 450.868Z" fill="#937BFF"/>
<path fill-rule="evenodd" clip-rule="evenodd" d="M71.5 450.868C70.6725 450.868 70 450.195 70 449.368C70 448.539 70.6725 447.868 71.5 447.868C72.3286 447.868 73 448.539 73 449.368C73 450.195 72.3286 450.868 71.5 450.868Z" fill="#937BFF"/>
<path fill-rule="evenodd" clip-rule="evenodd" d="M46.5 450.868C45.6714 450.868 45 450.195 45 449.368C45 448.539 45.6714 447.868 46.5 447.868C47.3275 447.868 48 448.539 48 449.368C48 450.195 47.3275 450.868 46.5 450.868Z" fill="#937BFF"/>
<path fill-rule="evenodd" clip-rule="evenodd" d="M20.5 450.868C19.6714 450.868 19 450.195 19 449.368C19 448.539 19.6714 447.868 20.5 447.868C21.3286 447.868 22 448.539 22 449.368C22 450.195 21.3286 450.868 20.5 450.868Z" fill="#937BFF"/>
<path fill-rule="evenodd" clip-rule="evenodd" d="M0.5 451C-0.328639 451 -1 450.327 -1 449.5C-1 448.671 -0.328639 448 0.5 448C1.32864 448 2 448.671 2 449.5C2 450.327 1.32864 451 0.5 451Z" fill="#937BFF"/>
<path fill-rule="evenodd" clip-rule="evenodd" d="M84.5 477.868C83.6714 477.868 83 477.195 83 476.368C83 475.539 83.6714 474.868 84.5 474.868C85.3286 474.868 86 475.539 86 476.368C86 477.195 85.3286 477.868 84.5 477.868Z" fill="#937BFF"/>
<path fill-rule="evenodd" clip-rule="evenodd" d="M59.5 477.868C58.6714 477.868 58 477.195 58 476.368C58 475.539 58.6714 474.868 59.5 474.868C60.3286 474.868 61 475.539 61 476.368C61 477.195 60.3286 477.868 59.5 477.868Z" fill="#937BFF"/>
<path fill-rule="evenodd" clip-rule="evenodd" d="M34.5006 477.868C33.6716 477.868 33 477.195 33 476.368C33 475.539 33.6716 474.868 34.5006 474.868C35.3284 474.868 36 475.539 36 476.368C36 477.195 35.3284 477.868 34.5006 477.868Z" fill="#937BFF"/>
<path fill-rule="evenodd" clip-rule="evenodd" d="M10.5 477.868C9.67254 477.868 9 477.195 9 476.368C9 475.539 9.67254 474.868 10.5 474.868C11.3286 474.868 12 475.539 12 476.368C12 477.195 11.3286 477.868 10.5 477.868Z" fill="#937BFF"/>
<path fill-rule="evenodd" clip-rule="evenodd" d="M96.5006 501.868C95.6716 501.868 95 501.197 95 500.369C95 499.54 95.6716 498.868 96.5006 498.868C97.3284 498.868 98 499.54 98 500.369C98 501.197 97.3284 501.868 96.5006 501.868Z" fill="#937BFF"/>
<path fill-rule="evenodd" clip-rule="evenodd" d="M71.5 501.868C70.6725 501.868 70 501.197 70 500.369C70 499.54 70.6725 498.868 71.5 498.868C72.3286 498.868 73 499.54 73 500.369C73 501.197 72.3286 501.868 71.5 501.868Z" fill="#937BFF"/>
<path fill-rule="evenodd" clip-rule="evenodd" d="M46.5 501.868C45.6714 501.868 45 501.197 45 500.369C45 499.54 45.6714 498.868 46.5 498.868C47.3275 498.868 48 499.54 48 500.369C48 501.197 47.3275 501.868 46.5 501.868Z" fill="#937BFF"/>
<path fill-rule="evenodd" clip-rule="evenodd" d="M20.5 501.868C19.6714 501.868 19 501.197 19 500.369C19 499.54 19.6714 498.868 20.5 498.868C21.3286 498.868 22 499.54 22 500.369C22 501.197 21.3286 501.868 20.5 501.868Z" fill="#937BFF"/>
<path fill-rule="evenodd" clip-rule="evenodd" d="M0.5 502C-0.328639 502 -1 501.33 -1 500.501C-1 499.672 -0.328639 499 0.5 499C1.32864 499 2 499.672 2 500.501C2 501.33 1.32864 502 0.5 502Z" fill="#937BFF"/>
<path fill-rule="evenodd" clip-rule="evenodd" d="M84.5 526.868C83.6714 526.868 83 526.197 83 525.369C83 524.54 83.6714 523.868 84.5 523.868C85.3286 523.868 86 524.54 86 525.369C86 526.197 85.3286 526.868 84.5 526.868Z" fill="#937BFF"/>
<path fill-rule="evenodd" clip-rule="evenodd" d="M59.5 526.868C58.6714 526.868 58 526.197 58 525.369C58 524.54 58.6714 523.868 59.5 523.868C60.3286 523.868 61 524.54 61 525.369C61 526.197 60.3286 526.868 59.5 526.868Z" fill="#937BFF"/>
<path fill-rule="evenodd" clip-rule="evenodd" d="M34.5006 526.868C33.6716 526.868 33 526.197 33 525.369C33 524.54 33.6716 523.868 34.5006 523.868C35.3284 523.868 36 524.54 36 525.369C36 526.197 35.3284 526.868 34.5006 526.868Z" fill="#937BFF"/>
<path fill-rule="evenodd" clip-rule="evenodd" d="M10.5 526.868C9.67254 526.868 9 526.197 9 525.369C9 524.54 9.67254 523.868 10.5 523.868C11.3286 523.868 12 524.54 12 525.369C12 526.197 11.3286 526.868 10.5 526.868Z" fill="#937BFF"/>
<path fill-rule="evenodd" clip-rule="evenodd" d="M96.5006 551.868C95.6716 551.868 95 551.195 95 550.368C95 549.539 95.6716 548.868 96.5006 548.868C97.3284 548.868 98 549.539 98 550.368C98 551.195 97.3284 551.868 96.5006 551.868Z" fill="#937BFF"/>
<path fill-rule="evenodd" clip-rule="evenodd" d="M71.5 551.868C70.6725 551.868 70 551.195 70 550.368C70 549.539 70.6725 548.868 71.5 548.868C72.3286 548.868 73 549.539 73 550.368C73 551.195 72.3286 551.868 71.5 551.868Z" fill="#937BFF"/>
<path fill-rule="evenodd" clip-rule="evenodd" d="M46.5 551.868C45.6714 551.868 45 551.195 45 550.368C45 549.539 45.6714 548.868 46.5 548.868C47.3275 548.868 48 549.539 48 550.368C48 551.195 47.3275 551.868 46.5 551.868Z" fill="#937BFF"/>
<path fill-rule="evenodd" clip-rule="evenodd" d="M20.5 551.868C19.6714 551.868 19 551.195 19 550.368C19 549.539 19.6714 548.868 20.5 548.868C21.3286 548.868 22 549.539 22 550.368C22 551.195 21.3286 551.868 20.5 551.868Z" fill="#937BFF"/>
<path fill-rule="evenodd" clip-rule="evenodd" d="M0.5 552C-0.328639 552 -1 551.327 -1 550.5C-1 549.671 -0.328639 549 0.5 549C1.32864 549 2 549.671 2 550.5C2 551.327 1.32864 552 0.5 552Z" fill="#937BFF"/>
<path fill-rule="evenodd" clip-rule="evenodd" d="M84.5 577.868C83.6714 577.868 83 577.195 83 576.368C83 575.539 83.6714 574.868 84.5 574.868C85.3286 574.868 86 575.539 86 576.368C86 577.195 85.3286 577.868 84.5 577.868Z" fill="#937BFF"/>
<path fill-rule="evenodd" clip-rule="evenodd" d="M59.5 577.868C58.6714 577.868 58 577.195 58 576.368C58 575.539 58.6714 574.868 59.5 574.868C60.3286 574.868 61 575.539 61 576.368C61 577.195 60.3286 577.868 59.5 577.868Z" fill="#937BFF"/>
<path fill-rule="evenodd" clip-rule="evenodd" d="M34.5006 577.868C33.6716 577.868 33 577.195 33 576.368C33 575.539 33.6716 574.868 34.5006 574.868C35.3284 574.868 36 575.539 36 576.368C36 577.195 35.3284 577.868 34.5006 577.868Z" fill="#937BFF"/>
<path fill-rule="evenodd" clip-rule="evenodd" d="M10.5 577.868C9.67254 577.868 9 577.195 9 576.368C9 575.539 9.67254 574.868 10.5 574.868C11.3286 574.868 12 575.539 12 576.368C12 577.195 11.3286 577.868 10.5 577.868Z" fill="#937BFF"/>
<path fill-rule="evenodd" clip-rule="evenodd" d="M96.5006 601.868C95.6716 601.868 95 601.195 95 600.368C95 599.539 95.6716 598.868 96.5006 598.868C97.3284 598.868 98 599.539 98 600.368C98 601.195 97.3284 601.868 96.5006 601.868Z" fill="#937BFF"/>
<path fill-rule="evenodd" clip-rule="evenodd" d="M71.5 601.868C70.6725 601.868 70 601.195 70 600.368C70 599.539 70.6725 598.868 71.5 598.868C72.3286 598.868 73 599.539 73 600.368C73 601.195 72.3286 601.868 71.5 601.868Z" fill="#937BFF"/>
<path fill-rule="evenodd" clip-rule="evenodd" d="M46.5 601.868C45.6714 601.868 45 601.195 45 600.368C45 599.539 45.6714 598.868 46.5 598.868C47.3275 598.868 48 599.539 48 600.368C48 601.195 47.3275 601.868 46.5 601.868Z" fill="#937BFF"/>
<path fill-rule="evenodd" clip-rule="evenodd" d="M20.5 601.868C19.6714 601.868 19 601.195 19 600.368C19 599.539 19.6714 598.868 20.5 598.868C21.3286 598.868 22 599.539 22 600.368C22 601.195 21.3286 601.868 20.5 601.868Z" fill="#937BFF"/>
</g>
</svg>
