<svg width="37" height="37" viewBox="0 0 37 37" fill="none" xmlns="http://www.w3.org/2000/svg">
<g clip-path="url(#clip0_19_1326)">
<circle cx="18.5" cy="18.5" r="18.5" fill="#F8F4F4"/>
<path d="M22.93 23V21.138H19.248L21.166 19.22C22.244 18.142 22.776 17.106 22.776 16.084C22.776 15.146 22.454 14.39 21.824 13.844C21.194 13.284 20.424 13.004 19.542 13.004C18.156 13.004 16.924 13.732 16.308 15.076L17.932 16.028C18.282 15.258 18.828 14.88 19.57 14.88C20.312 14.88 20.844 15.384 20.844 16.154C20.844 16.672 20.466 17.33 19.724 18.114L16.378 21.558V23H22.93Z" fill="#2D2D2D"/>
</g>
<defs>
<clipPath id="clip0_19_1326">
<rect width="37" height="37" fill="white"/>
</clipPath>
</defs>
</svg>
