<svg width="545" height="513" viewBox="0 0 545 513" fill="none" xmlns="http://www.w3.org/2000/svg">
<g opacity="0.378929">
<path fill-rule="evenodd" clip-rule="evenodd" d="M449.987 112.535C449.288 112.535 448.721 111.969 448.721 111.268C448.721 110.568 449.288 110 449.987 110C450.687 110 451.253 110.568 451.253 111.268C451.253 111.969 450.687 112.535 449.987 112.535Z" fill="#937BFF"/>
<path fill-rule="evenodd" clip-rule="evenodd" d="M427.196 112.535C426.497 112.535 425.93 111.969 425.93 111.268C425.93 110.568 426.497 110 427.196 110C427.895 110 428.462 110.568 428.462 111.268C428.462 111.969 427.895 112.535 427.196 112.535Z" fill="#937BFF"/>
<path fill-rule="evenodd" clip-rule="evenodd" d="M405.249 112.535C404.55 112.535 403.983 111.969 403.983 111.268C403.983 110.568 404.55 110 405.249 110C405.948 110 406.515 110.568 406.515 111.268C406.515 111.969 405.948 112.535 405.249 112.535Z" fill="#937BFF"/>
<path fill-rule="evenodd" clip-rule="evenodd" d="M383.302 112.535C382.603 112.535 382.036 111.969 382.036 111.268C382.036 110.568 382.603 110 383.302 110C384.001 110 384.568 110.568 384.568 111.268C384.568 111.969 384.001 112.535 383.302 112.535Z" fill="#937BFF"/>
<path fill-rule="evenodd" clip-rule="evenodd" d="M460.961 134.508C460.262 134.508 459.695 133.942 459.695 133.241C459.695 132.541 460.262 131.973 460.961 131.973C461.66 131.973 462.227 132.541 462.227 133.241C462.227 133.942 461.66 134.508 460.961 134.508Z" fill="#937BFF"/>
<path fill-rule="evenodd" clip-rule="evenodd" d="M438.17 134.508C437.471 134.508 436.903 133.942 436.903 133.241C436.903 132.541 437.471 131.973 438.17 131.973C438.869 131.973 439.436 132.541 439.436 133.241C439.436 133.942 438.869 134.508 438.17 134.508Z" fill="#937BFF"/>
<path fill-rule="evenodd" clip-rule="evenodd" d="M416.222 134.508C415.523 134.508 414.956 133.942 414.956 133.241C414.956 132.541 415.523 131.973 416.222 131.973C416.921 131.973 417.489 132.541 417.489 133.241C417.489 133.942 416.921 134.508 416.222 134.508Z" fill="#937BFF"/>
<path fill-rule="evenodd" clip-rule="evenodd" d="M392.587 134.508C391.888 134.508 391.321 133.942 391.321 133.241C391.321 132.541 391.888 131.973 392.587 131.973C393.287 131.973 393.853 132.541 393.853 133.241C393.853 133.942 393.287 134.508 392.587 134.508Z" fill="#937BFF"/>
<path fill-rule="evenodd" clip-rule="evenodd" d="M374.861 134.508C374.161 134.508 373.595 133.942 373.595 133.241C373.595 132.541 374.161 131.973 374.861 131.973C375.56 131.973 376.127 132.541 376.127 133.241C376.127 133.942 375.56 134.508 374.861 134.508Z" fill="#937BFF"/>
<path fill-rule="evenodd" clip-rule="evenodd" d="M449.987 158.172C449.288 158.172 448.721 157.603 448.721 156.904C448.721 156.204 449.288 155.636 449.987 155.636C450.687 155.636 451.253 156.204 451.253 156.904C451.253 157.603 450.687 158.172 449.987 158.172Z" fill="#937BFF"/>
<path fill-rule="evenodd" clip-rule="evenodd" d="M427.196 158.172C426.497 158.172 425.93 157.603 425.93 156.904C425.93 156.204 426.497 155.636 427.196 155.636C427.895 155.636 428.462 156.204 428.462 156.904C428.462 157.603 427.895 158.172 427.196 158.172Z" fill="#937BFF"/>
<path fill-rule="evenodd" clip-rule="evenodd" d="M405.249 158.172C404.55 158.172 403.983 157.603 403.983 156.904C403.983 156.204 404.55 155.636 405.249 155.636C405.948 155.636 406.515 156.204 406.515 156.904C406.515 157.603 405.948 158.172 405.249 158.172Z" fill="#937BFF"/>
<path fill-rule="evenodd" clip-rule="evenodd" d="M383.302 158.172C382.603 158.172 382.036 157.603 382.036 156.904C382.036 156.204 382.603 155.636 383.302 155.636C384.001 155.636 384.568 156.204 384.568 156.904C384.568 157.603 384.001 158.172 383.302 158.172Z" fill="#937BFF"/>
<path fill-rule="evenodd" clip-rule="evenodd" d="M460.961 180.145C460.262 180.145 459.695 179.576 459.695 178.877C459.695 178.177 460.262 177.609 460.961 177.609C461.66 177.609 462.227 178.177 462.227 178.877C462.227 179.576 461.66 180.145 460.961 180.145Z" fill="#937BFF"/>
<path fill-rule="evenodd" clip-rule="evenodd" d="M438.17 180.145C437.471 180.145 436.903 179.576 436.903 178.877C436.903 178.177 437.471 177.609 438.17 177.609C438.869 177.609 439.436 178.177 439.436 178.877C439.436 179.576 438.869 180.145 438.17 180.145Z" fill="#937BFF"/>
<path fill-rule="evenodd" clip-rule="evenodd" d="M416.222 180.145C415.523 180.145 414.956 179.576 414.956 178.877C414.956 178.177 415.523 177.609 416.222 177.609C416.921 177.609 417.489 178.177 417.489 178.877C417.489 179.576 416.921 180.145 416.222 180.145Z" fill="#937BFF"/>
<path fill-rule="evenodd" clip-rule="evenodd" d="M392.587 180.145C391.888 180.145 391.321 179.576 391.321 178.877C391.321 178.177 391.888 177.609 392.587 177.609C393.287 177.609 393.853 178.177 393.853 178.877C393.853 179.576 393.287 180.145 392.587 180.145Z" fill="#937BFF"/>
<path fill-rule="evenodd" clip-rule="evenodd" d="M374.861 180.145C374.161 180.145 373.595 179.576 373.595 178.877C373.595 178.177 374.161 177.609 374.861 177.609C375.56 177.609 376.127 178.177 376.127 178.877C376.127 179.576 375.56 180.145 374.861 180.145Z" fill="#937BFF"/>
<path fill-rule="evenodd" clip-rule="evenodd" d="M449.987 204.653C449.288 204.653 448.721 204.085 448.721 203.386C448.721 202.685 449.288 202.118 449.987 202.118C450.687 202.118 451.253 202.685 451.253 203.386C451.253 204.085 450.687 204.653 449.987 204.653Z" fill="#937BFF"/>
<path fill-rule="evenodd" clip-rule="evenodd" d="M427.196 204.653C426.497 204.653 425.93 204.085 425.93 203.386C425.93 202.685 426.497 202.118 427.196 202.118C427.895 202.118 428.462 202.685 428.462 203.386C428.462 204.085 427.895 204.653 427.196 204.653Z" fill="#937BFF"/>
<path fill-rule="evenodd" clip-rule="evenodd" d="M405.249 204.653C404.55 204.653 403.983 204.085 403.983 203.386C403.983 202.685 404.55 202.118 405.249 202.118C405.948 202.118 406.515 202.685 406.515 203.386C406.515 204.085 405.948 204.653 405.249 204.653Z" fill="#937BFF"/>
<path fill-rule="evenodd" clip-rule="evenodd" d="M383.302 204.653C382.603 204.653 382.036 204.085 382.036 203.386C382.036 202.685 382.603 202.118 383.302 202.118C384.001 202.118 384.568 202.685 384.568 203.386C384.568 204.085 384.001 204.653 383.302 204.653Z" fill="#937BFF"/>
<path fill-rule="evenodd" clip-rule="evenodd" d="M460.961 225.781C460.262 225.781 459.695 225.215 459.695 224.514C459.695 223.813 460.262 223.246 460.961 223.246C461.66 223.246 462.227 223.813 462.227 224.514C462.227 225.215 461.66 225.781 460.961 225.781Z" fill="#937BFF"/>
<path fill-rule="evenodd" clip-rule="evenodd" d="M438.17 225.781C437.471 225.781 436.903 225.215 436.903 224.514C436.903 223.813 437.471 223.246 438.17 223.246C438.869 223.246 439.436 223.813 439.436 224.514C439.436 225.215 438.869 225.781 438.17 225.781Z" fill="#937BFF"/>
<path fill-rule="evenodd" clip-rule="evenodd" d="M416.222 225.781C415.523 225.781 414.956 225.215 414.956 224.514C414.956 223.813 415.523 223.246 416.222 223.246C416.921 223.246 417.489 223.813 417.489 224.514C417.489 225.215 416.921 225.781 416.222 225.781Z" fill="#937BFF"/>
<path fill-rule="evenodd" clip-rule="evenodd" d="M392.587 225.781C391.888 225.781 391.321 225.215 391.321 224.514C391.321 223.813 391.888 223.246 392.587 223.246C393.287 223.246 393.853 223.813 393.853 224.514C393.853 225.215 393.287 225.781 392.587 225.781Z" fill="#937BFF"/>
<path fill-rule="evenodd" clip-rule="evenodd" d="M374.861 225.781C374.161 225.781 373.595 225.215 373.595 224.514C373.595 223.813 374.161 223.246 374.861 223.246C375.56 223.246 376.127 223.813 376.127 224.514C376.127 225.215 375.56 225.781 374.861 225.781Z" fill="#937BFF"/>
<path fill-rule="evenodd" clip-rule="evenodd" d="M449.987 248.599C449.288 248.599 448.721 248.033 448.721 247.332C448.721 246.632 449.288 246.064 449.987 246.064C450.687 246.064 451.253 246.632 451.253 247.332C451.253 248.033 450.687 248.599 449.987 248.599Z" fill="#937BFF"/>
<path fill-rule="evenodd" clip-rule="evenodd" d="M427.196 248.599C426.497 248.599 425.93 248.033 425.93 247.332C425.93 246.632 426.497 246.064 427.196 246.064C427.895 246.064 428.462 246.632 428.462 247.332C428.462 248.033 427.895 248.599 427.196 248.599Z" fill="#937BFF"/>
<path fill-rule="evenodd" clip-rule="evenodd" d="M405.249 248.599C404.55 248.599 403.983 248.033 403.983 247.332C403.983 246.632 404.55 246.064 405.249 246.064C405.948 246.064 406.515 246.632 406.515 247.332C406.515 248.033 405.948 248.599 405.249 248.599Z" fill="#937BFF"/>
<path fill-rule="evenodd" clip-rule="evenodd" d="M383.302 248.599C382.603 248.599 382.036 248.033 382.036 247.332C382.036 246.632 382.603 246.064 383.302 246.064C384.001 246.064 384.568 246.632 384.568 247.332C384.568 248.033 384.001 248.599 383.302 248.599Z" fill="#937BFF"/>
<path fill-rule="evenodd" clip-rule="evenodd" d="M460.961 270.572C460.262 270.572 459.695 270.004 459.695 269.305C459.695 268.604 460.262 268.037 460.961 268.037C461.66 268.037 462.227 268.604 462.227 269.305C462.227 270.004 461.66 270.572 460.961 270.572Z" fill="#937BFF"/>
<path fill-rule="evenodd" clip-rule="evenodd" d="M438.17 270.572C437.471 270.572 436.903 270.004 436.903 269.305C436.903 268.604 437.471 268.037 438.17 268.037C438.869 268.037 439.436 268.604 439.436 269.305C439.436 270.004 438.869 270.572 438.17 270.572Z" fill="#937BFF"/>
<path fill-rule="evenodd" clip-rule="evenodd" d="M416.222 270.572C415.523 270.572 414.956 270.004 414.956 269.305C414.956 268.604 415.523 268.037 416.222 268.037C416.921 268.037 417.489 268.604 417.489 269.305C417.489 270.004 416.921 270.572 416.222 270.572Z" fill="#937BFF"/>
<path fill-rule="evenodd" clip-rule="evenodd" d="M392.587 270.572C391.888 270.572 391.321 270.004 391.321 269.305C391.321 268.604 391.888 268.037 392.587 268.037C393.287 268.037 393.853 268.604 393.853 269.305C393.853 270.004 393.287 270.572 392.587 270.572Z" fill="#937BFF"/>
<path fill-rule="evenodd" clip-rule="evenodd" d="M374.861 271.417C374.161 271.417 373.595 270.849 373.595 270.15C373.595 269.449 374.161 268.882 374.861 268.882C375.56 268.882 376.127 269.449 376.127 270.15C376.127 270.849 375.56 271.417 374.861 271.417Z" fill="#937BFF"/>
<path fill-rule="evenodd" clip-rule="evenodd" d="M449.987 294.236C449.288 294.236 448.721 293.667 448.721 292.968C448.721 292.268 449.288 291.7 449.987 291.7C450.687 291.7 451.253 292.268 451.253 292.968C451.253 293.667 450.687 294.236 449.987 294.236Z" fill="#937BFF"/>
<path fill-rule="evenodd" clip-rule="evenodd" d="M427.196 294.236C426.497 294.236 425.93 293.667 425.93 292.968C425.93 292.268 426.497 291.7 427.196 291.7C427.895 291.7 428.462 292.268 428.462 292.968C428.462 293.667 427.895 294.236 427.196 294.236Z" fill="#937BFF"/>
<path fill-rule="evenodd" clip-rule="evenodd" d="M405.249 294.236C404.55 294.236 403.983 293.667 403.983 292.968C403.983 292.268 404.55 291.7 405.249 291.7C405.948 291.7 406.515 292.268 406.515 292.968C406.515 293.667 405.948 294.236 405.249 294.236Z" fill="#937BFF"/>
<path fill-rule="evenodd" clip-rule="evenodd" d="M383.302 294.236C382.603 294.236 382.036 293.667 382.036 292.968C382.036 292.268 382.603 291.7 383.302 291.7C384.001 291.7 384.568 292.268 384.568 292.968C384.568 293.667 384.001 294.236 383.302 294.236Z" fill="#937BFF"/>
<path fill-rule="evenodd" clip-rule="evenodd" d="M460.961 316.209C460.262 316.209 459.695 315.64 459.695 314.941C459.695 314.241 460.262 313.673 460.961 313.673C461.66 313.673 462.227 314.241 462.227 314.941C462.227 315.64 461.66 316.209 460.961 316.209Z" fill="#937BFF"/>
<path fill-rule="evenodd" clip-rule="evenodd" d="M438.17 316.209C437.471 316.209 436.903 315.64 436.903 314.941C436.903 314.241 437.471 313.673 438.17 313.673C438.869 313.673 439.436 314.241 439.436 314.941C439.436 315.64 438.869 316.209 438.17 316.209Z" fill="#937BFF"/>
<path fill-rule="evenodd" clip-rule="evenodd" d="M416.222 316.209C415.523 316.209 414.956 315.64 414.956 314.941C414.956 314.241 415.523 313.673 416.222 313.673C416.921 313.673 417.489 314.241 417.489 314.941C417.489 315.64 416.921 316.209 416.222 316.209Z" fill="#937BFF"/>
<path fill-rule="evenodd" clip-rule="evenodd" d="M392.587 316.209C391.888 316.209 391.321 315.64 391.321 314.941C391.321 314.241 391.888 313.673 392.587 313.673C393.287 313.673 393.853 314.241 393.853 314.941C393.853 315.64 393.287 316.209 392.587 316.209Z" fill="#937BFF"/>
<path fill-rule="evenodd" clip-rule="evenodd" d="M374.861 316.209C374.161 316.209 373.595 315.64 373.595 314.941C373.595 314.241 374.161 313.673 374.861 313.673C375.56 313.673 376.127 314.241 376.127 314.941C376.127 315.64 375.56 316.209 374.861 316.209Z" fill="#937BFF"/>
<path fill-rule="evenodd" clip-rule="evenodd" d="M449.987 338.182C449.288 338.182 448.721 337.615 448.721 336.915C448.721 336.214 449.288 335.646 449.987 335.646C450.687 335.646 451.253 336.214 451.253 336.915C451.253 337.615 450.687 338.182 449.987 338.182Z" fill="#937BFF"/>
<path fill-rule="evenodd" clip-rule="evenodd" d="M427.196 338.182C426.497 338.182 425.93 337.615 425.93 336.915C425.93 336.214 426.497 335.646 427.196 335.646C427.895 335.646 428.462 336.214 428.462 336.915C428.462 337.615 427.895 338.182 427.196 338.182Z" fill="#937BFF"/>
<path fill-rule="evenodd" clip-rule="evenodd" d="M405.249 338.182C404.55 338.182 403.983 337.615 403.983 336.915C403.983 336.214 404.55 335.646 405.249 335.646C405.948 335.646 406.515 336.214 406.515 336.915C406.515 337.615 405.948 338.182 405.249 338.182Z" fill="#937BFF"/>
<path fill-rule="evenodd" clip-rule="evenodd" d="M374.861 338.182C374.162 338.182 373.595 337.615 373.595 336.915C373.595 336.214 374.162 335.646 374.861 335.646C375.56 335.646 376.127 336.214 376.127 336.915C376.127 337.615 375.56 338.182 374.861 338.182Z" fill="#937BFF"/>
<path fill-rule="evenodd" clip-rule="evenodd" d="M460.961 361C460.262 361 459.695 360.433 459.695 359.733C459.695 359.032 460.262 358.465 460.961 358.465C461.66 358.465 462.227 359.032 462.227 359.733C462.227 360.433 461.66 361 460.961 361Z" fill="#937BFF"/>
<path fill-rule="evenodd" clip-rule="evenodd" d="M438.17 361C437.471 361 436.903 360.433 436.903 359.733C436.903 359.032 437.471 358.465 438.17 358.465C438.869 358.465 439.436 359.032 439.436 359.733C439.436 360.433 438.869 361 438.17 361Z" fill="#937BFF"/>
<path fill-rule="evenodd" clip-rule="evenodd" d="M416.222 361C415.523 361 414.956 360.433 414.956 359.733C414.956 359.032 415.523 358.465 416.222 358.465C416.921 358.465 417.489 359.032 417.489 359.733C417.489 360.433 416.921 361 416.222 361Z" fill="#937BFF"/>
<path fill-rule="evenodd" clip-rule="evenodd" d="M392.587 361C391.888 361 391.321 360.433 391.321 359.733C391.321 359.032 391.888 358.465 392.587 358.465C393.287 358.465 393.853 359.032 393.853 359.733C393.853 360.433 393.287 361 392.587 361Z" fill="#937BFF"/>
<path fill-rule="evenodd" clip-rule="evenodd" d="M374.861 361C374.161 361 373.595 360.433 373.595 359.733C373.595 359.032 374.161 358.465 374.861 358.465C375.56 358.465 376.127 359.032 376.127 359.733C376.127 360.433 375.56 361 374.861 361Z" fill="#937BFF"/>
<path fill-rule="evenodd" clip-rule="evenodd" d="M351.225 112.535C350.526 112.535 349.959 111.969 349.959 111.268C349.959 110.568 350.526 110 351.225 110C351.925 110 352.492 110.568 352.492 111.268C352.492 111.969 351.925 112.535 351.225 112.535Z" fill="#937BFF"/>
<path fill-rule="evenodd" clip-rule="evenodd" d="M328.434 112.535C327.735 112.535 327.168 111.969 327.168 111.268C327.168 110.568 327.735 110 328.434 110C329.134 110 329.7 110.568 329.7 111.268C329.7 111.969 329.134 112.535 328.434 112.535Z" fill="#937BFF"/>
<path fill-rule="evenodd" clip-rule="evenodd" d="M306.488 112.535C305.788 112.535 305.221 111.969 305.221 111.268C305.221 110.568 305.788 110 306.488 110C307.186 110 307.753 110.568 307.753 111.268C307.753 111.969 307.186 112.535 306.488 112.535Z" fill="#937BFF"/>
<path fill-rule="evenodd" clip-rule="evenodd" d="M284.54 112.535C283.842 112.535 283.274 111.969 283.274 111.268C283.274 110.568 283.842 110 284.54 110C285.24 110 285.806 110.568 285.806 111.268C285.806 111.969 285.24 112.535 284.54 112.535Z" fill="#937BFF"/>
<path fill-rule="evenodd" clip-rule="evenodd" d="M362.199 134.508C361.5 134.508 360.933 133.942 360.933 133.241C360.933 132.541 361.5 131.973 362.199 131.973C362.898 131.973 363.465 132.541 363.465 133.241C363.465 133.942 362.898 134.508 362.199 134.508Z" fill="#937BFF"/>
<path fill-rule="evenodd" clip-rule="evenodd" d="M339.408 134.508C338.709 134.508 338.142 133.942 338.142 133.241C338.142 132.541 338.709 131.973 339.408 131.973C340.107 131.973 340.674 132.541 340.674 133.241C340.674 133.942 340.107 134.508 339.408 134.508Z" fill="#937BFF"/>
<path fill-rule="evenodd" clip-rule="evenodd" d="M316.617 134.508C315.917 134.508 315.35 133.942 315.35 133.241C315.35 132.541 315.917 131.973 316.617 131.973C317.315 131.973 317.883 132.541 317.883 133.241C317.883 133.942 317.315 134.508 316.617 134.508Z" fill="#937BFF"/>
<path fill-rule="evenodd" clip-rule="evenodd" d="M293.825 134.508C293.126 134.508 292.559 133.942 292.559 133.241C292.559 132.541 293.126 131.973 293.825 131.973C294.525 131.973 295.092 132.541 295.092 133.241C295.092 133.942 294.525 134.508 293.825 134.508Z" fill="#937BFF"/>
<path fill-rule="evenodd" clip-rule="evenodd" d="M275.255 134.508C274.555 134.508 273.989 133.942 273.989 133.241C273.989 132.541 274.555 131.973 275.255 131.973C275.954 131.973 276.521 132.541 276.521 133.241C276.521 133.942 275.954 134.508 275.255 134.508Z" fill="#937BFF"/>
<path fill-rule="evenodd" clip-rule="evenodd" d="M351.225 158.172C350.526 158.172 349.959 157.603 349.959 156.904C349.959 156.204 350.526 155.636 351.225 155.636C351.925 155.636 352.492 156.204 352.492 156.904C352.492 157.603 351.925 158.172 351.225 158.172Z" fill="#937BFF"/>
<path fill-rule="evenodd" clip-rule="evenodd" d="M328.434 158.172C327.735 158.172 327.168 157.603 327.168 156.904C327.168 156.204 327.735 155.636 328.434 155.636C329.134 155.636 329.7 156.204 329.7 156.904C329.7 157.603 329.134 158.172 328.434 158.172Z" fill="#937BFF"/>
<path fill-rule="evenodd" clip-rule="evenodd" d="M306.488 158.172C305.788 158.172 305.221 157.603 305.221 156.904C305.221 156.204 305.788 155.636 306.488 155.636C307.186 155.636 307.753 156.204 307.753 156.904C307.753 157.603 307.186 158.172 306.488 158.172Z" fill="#937BFF"/>
<path fill-rule="evenodd" clip-rule="evenodd" d="M284.54 158.172C283.842 158.172 283.274 157.603 283.274 156.904C283.274 156.204 283.842 155.636 284.54 155.636C285.24 155.636 285.806 156.204 285.806 156.904C285.806 157.603 285.24 158.172 284.54 158.172Z" fill="#937BFF"/>
<path fill-rule="evenodd" clip-rule="evenodd" d="M362.199 180.145C361.5 180.145 360.933 179.576 360.933 178.877C360.933 178.177 361.5 177.609 362.199 177.609C362.898 177.609 363.465 178.177 363.465 178.877C363.465 179.576 362.898 180.145 362.199 180.145Z" fill="#937BFF"/>
<path fill-rule="evenodd" clip-rule="evenodd" d="M339.408 180.145C338.709 180.145 338.142 179.576 338.142 178.877C338.142 178.177 338.709 177.609 339.408 177.609C340.107 177.609 340.674 178.177 340.674 178.877C340.674 179.576 340.107 180.145 339.408 180.145Z" fill="#937BFF"/>
<path fill-rule="evenodd" clip-rule="evenodd" d="M316.617 180.145C315.917 180.145 315.35 179.576 315.35 178.877C315.35 178.177 315.917 177.609 316.617 177.609C317.315 177.609 317.883 178.177 317.883 178.877C317.883 179.576 317.315 180.145 316.617 180.145Z" fill="#937BFF"/>
<path fill-rule="evenodd" clip-rule="evenodd" d="M293.825 180.145C293.126 180.145 292.559 179.576 292.559 178.877C292.559 178.177 293.126 177.609 293.825 177.609C294.525 177.609 295.092 178.177 295.092 178.877C295.092 179.576 294.525 180.145 293.825 180.145Z" fill="#937BFF"/>
<path fill-rule="evenodd" clip-rule="evenodd" d="M275.255 180.145C274.555 180.145 273.989 179.576 273.989 178.877C273.989 178.177 274.555 177.609 275.255 177.609C275.954 177.609 276.521 178.177 276.521 178.877C276.521 179.576 275.954 180.145 275.255 180.145Z" fill="#937BFF"/>
<path fill-rule="evenodd" clip-rule="evenodd" d="M351.225 204.653C350.526 204.653 349.959 204.085 349.959 203.386C349.959 202.685 350.526 202.118 351.225 202.118C351.925 202.118 352.492 202.685 352.492 203.386C352.492 204.085 351.925 204.653 351.225 204.653Z" fill="#937BFF"/>
<path fill-rule="evenodd" clip-rule="evenodd" d="M328.434 204.653C327.735 204.653 327.168 204.085 327.168 203.386C327.168 202.685 327.735 202.118 328.434 202.118C329.134 202.118 329.7 202.685 329.7 203.386C329.7 204.085 329.134 204.653 328.434 204.653Z" fill="#937BFF"/>
<path fill-rule="evenodd" clip-rule="evenodd" d="M306.488 204.653C305.788 204.653 305.221 204.085 305.221 203.386C305.221 202.685 305.788 202.118 306.488 202.118C307.186 202.118 307.753 202.685 307.753 203.386C307.753 204.085 307.186 204.653 306.488 204.653Z" fill="#937BFF"/>
<path fill-rule="evenodd" clip-rule="evenodd" d="M284.54 204.653C283.842 204.653 283.274 204.085 283.274 203.386C283.274 202.685 283.842 202.118 284.54 202.118C285.24 202.118 285.806 202.685 285.806 203.386C285.806 204.085 285.24 204.653 284.54 204.653Z" fill="#937BFF"/>
<path fill-rule="evenodd" clip-rule="evenodd" d="M362.199 225.781C361.5 225.781 360.933 225.215 360.933 224.514C360.933 223.813 361.5 223.246 362.199 223.246C362.898 223.246 363.465 223.813 363.465 224.514C363.465 225.215 362.898 225.781 362.199 225.781Z" fill="#937BFF"/>
<path fill-rule="evenodd" clip-rule="evenodd" d="M339.408 225.781C338.709 225.781 338.142 225.215 338.142 224.514C338.142 223.813 338.709 223.246 339.408 223.246C340.107 223.246 340.674 223.813 340.674 224.514C340.674 225.215 340.107 225.781 339.408 225.781Z" fill="#937BFF"/>
<path fill-rule="evenodd" clip-rule="evenodd" d="M316.617 225.781C315.917 225.781 315.35 225.215 315.35 224.514C315.35 223.813 315.917 223.246 316.617 223.246C317.315 223.246 317.883 223.813 317.883 224.514C317.883 225.215 317.315 225.781 316.617 225.781Z" fill="#937BFF"/>
<path fill-rule="evenodd" clip-rule="evenodd" d="M293.825 225.781C293.126 225.781 292.559 225.215 292.559 224.514C292.559 223.813 293.126 223.246 293.825 223.246C294.525 223.246 295.092 223.813 295.092 224.514C295.092 225.215 294.525 225.781 293.825 225.781Z" fill="#937BFF"/>
<path fill-rule="evenodd" clip-rule="evenodd" d="M275.255 225.781C274.555 225.781 273.989 225.215 273.989 224.514C273.989 223.813 274.555 223.246 275.255 223.246C275.954 223.246 276.521 223.813 276.521 224.514C276.521 225.215 275.954 225.781 275.255 225.781Z" fill="#937BFF"/>
<path fill-rule="evenodd" clip-rule="evenodd" d="M351.225 248.599C350.526 248.599 349.959 248.033 349.959 247.332C349.959 246.632 350.526 246.064 351.225 246.064C351.925 246.064 352.492 246.632 352.492 247.332C352.492 248.033 351.925 248.599 351.225 248.599Z" fill="#937BFF"/>
<path fill-rule="evenodd" clip-rule="evenodd" d="M328.434 248.599C327.735 248.599 327.168 248.033 327.168 247.332C327.168 246.632 327.735 246.064 328.434 246.064C329.134 246.064 329.7 246.632 329.7 247.332C329.7 248.033 329.134 248.599 328.434 248.599Z" fill="#937BFF"/>
<path fill-rule="evenodd" clip-rule="evenodd" d="M306.488 248.599C305.788 248.599 305.221 248.033 305.221 247.332C305.221 246.632 305.788 246.064 306.488 246.064C307.186 246.064 307.753 246.632 307.753 247.332C307.753 248.033 307.186 248.599 306.488 248.599Z" fill="#937BFF"/>
<path fill-rule="evenodd" clip-rule="evenodd" d="M284.54 248.599C283.842 248.599 283.274 248.033 283.274 247.332C283.274 246.632 283.842 246.064 284.54 246.064C285.24 246.064 285.806 246.632 285.806 247.332C285.806 248.033 285.24 248.599 284.54 248.599Z" fill="#937BFF"/>
<path fill-rule="evenodd" clip-rule="evenodd" d="M362.199 270.572C361.5 270.572 360.933 270.004 360.933 269.305C360.933 268.604 361.5 268.037 362.199 268.037C362.898 268.037 363.465 268.604 363.465 269.305C363.465 270.004 362.898 270.572 362.199 270.572Z" fill="#937BFF"/>
<path fill-rule="evenodd" clip-rule="evenodd" d="M339.408 270.572C338.709 270.572 338.142 270.004 338.142 269.305C338.142 268.604 338.709 268.037 339.408 268.037C340.107 268.037 340.674 268.604 340.674 269.305C340.674 270.004 340.107 270.572 339.408 270.572Z" fill="#937BFF"/>
<path fill-rule="evenodd" clip-rule="evenodd" d="M316.617 270.572C315.917 270.572 315.35 270.004 315.35 269.305C315.35 268.604 315.917 268.037 316.617 268.037C317.315 268.037 317.883 268.604 317.883 269.305C317.883 270.004 317.315 270.572 316.617 270.572Z" fill="#937BFF"/>
<path fill-rule="evenodd" clip-rule="evenodd" d="M293.825 270.572C293.126 270.572 292.559 270.004 292.559 269.305C292.559 268.604 293.126 268.037 293.825 268.037C294.525 268.037 295.092 268.604 295.092 269.305C295.092 270.004 294.525 270.572 293.825 270.572Z" fill="#937BFF"/>
<path fill-rule="evenodd" clip-rule="evenodd" d="M275.255 271.417C274.555 271.417 273.989 270.849 273.989 270.15C273.989 269.449 274.555 268.882 275.255 268.882C275.954 268.882 276.521 269.449 276.521 270.15C276.521 270.849 275.954 271.417 275.255 271.417Z" fill="#937BFF"/>
<path fill-rule="evenodd" clip-rule="evenodd" d="M351.225 294.236C350.526 294.236 349.959 293.667 349.959 292.968C349.959 292.268 350.526 291.7 351.225 291.7C351.925 291.7 352.492 292.268 352.492 292.968C352.492 293.667 351.925 294.236 351.225 294.236Z" fill="#937BFF"/>
<path fill-rule="evenodd" clip-rule="evenodd" d="M328.434 294.236C327.735 294.236 327.168 293.667 327.168 292.968C327.168 292.268 327.735 291.7 328.434 291.7C329.134 291.7 329.7 292.268 329.7 292.968C329.7 293.667 329.134 294.236 328.434 294.236Z" fill="#937BFF"/>
<path fill-rule="evenodd" clip-rule="evenodd" d="M306.488 294.236C305.788 294.236 305.221 293.667 305.221 292.968C305.221 292.268 305.788 291.7 306.488 291.7C307.186 291.7 307.753 292.268 307.753 292.968C307.753 293.667 307.186 294.236 306.488 294.236Z" fill="#937BFF"/>
<path fill-rule="evenodd" clip-rule="evenodd" d="M284.54 294.236C283.842 294.236 283.274 293.667 283.274 292.968C283.274 292.268 283.842 291.7 284.54 291.7C285.24 291.7 285.806 292.268 285.806 292.968C285.806 293.667 285.24 294.236 284.54 294.236Z" fill="#937BFF"/>
<path fill-rule="evenodd" clip-rule="evenodd" d="M362.199 316.209C361.5 316.209 360.933 315.64 360.933 314.941C360.933 314.241 361.5 313.673 362.199 313.673C362.898 313.673 363.465 314.241 363.465 314.941C363.465 315.64 362.898 316.209 362.199 316.209Z" fill="#937BFF"/>
<path fill-rule="evenodd" clip-rule="evenodd" d="M339.408 316.209C338.709 316.209 338.142 315.64 338.142 314.941C338.142 314.241 338.709 313.673 339.408 313.673C340.107 313.673 340.674 314.241 340.674 314.941C340.674 315.64 340.107 316.209 339.408 316.209Z" fill="#937BFF"/>
<path fill-rule="evenodd" clip-rule="evenodd" d="M316.617 316.209C315.917 316.209 315.35 315.64 315.35 314.941C315.35 314.241 315.917 313.673 316.617 313.673C317.315 313.673 317.883 314.241 317.883 314.941C317.883 315.64 317.315 316.209 316.617 316.209Z" fill="#937BFF"/>
<path fill-rule="evenodd" clip-rule="evenodd" d="M293.825 316.209C293.126 316.209 292.559 315.64 292.559 314.941C292.559 314.241 293.126 313.673 293.825 313.673C294.525 313.673 295.092 314.241 295.092 314.941C295.092 315.64 294.525 316.209 293.825 316.209Z" fill="#937BFF"/>
<path fill-rule="evenodd" clip-rule="evenodd" d="M275.255 316.209C274.555 316.209 273.989 315.64 273.989 314.941C273.989 314.241 274.555 313.673 275.255 313.673C275.954 313.673 276.521 314.241 276.521 314.941C276.521 315.64 275.954 316.209 275.255 316.209Z" fill="#937BFF"/>
<path fill-rule="evenodd" clip-rule="evenodd" d="M351.225 338.182C350.526 338.182 349.959 337.615 349.959 336.915C349.959 336.214 350.526 335.646 351.225 335.646C351.925 335.646 352.492 336.214 352.492 336.915C352.492 337.615 351.925 338.182 351.225 338.182Z" fill="#937BFF"/>
<path fill-rule="evenodd" clip-rule="evenodd" d="M328.434 338.182C327.735 338.182 327.168 337.615 327.168 336.915C327.168 336.214 327.735 335.646 328.434 335.646C329.134 335.646 329.7 336.214 329.7 336.915C329.7 337.615 329.134 338.182 328.434 338.182Z" fill="#937BFF"/>
<path fill-rule="evenodd" clip-rule="evenodd" d="M306.488 338.182C305.788 338.182 305.221 337.615 305.221 336.915C305.221 336.214 305.788 335.646 306.488 335.646C307.186 335.646 307.753 336.214 307.753 336.915C307.753 337.615 307.186 338.182 306.488 338.182Z" fill="#937BFF"/>
<path fill-rule="evenodd" clip-rule="evenodd" d="M275.255 338.182C274.556 338.182 273.989 337.615 273.989 336.915C273.989 336.214 274.556 335.646 275.255 335.646C275.954 335.646 276.521 336.214 276.521 336.915C276.521 337.615 275.954 338.182 275.255 338.182Z" fill="#937BFF"/>
<path fill-rule="evenodd" clip-rule="evenodd" d="M362.199 361C361.5 361 360.933 360.433 360.933 359.733C360.933 359.032 361.5 358.465 362.199 358.465C362.898 358.465 363.465 359.032 363.465 359.733C363.465 360.433 362.898 361 362.199 361Z" fill="#937BFF"/>
<path fill-rule="evenodd" clip-rule="evenodd" d="M339.408 361C338.709 361 338.142 360.433 338.142 359.733C338.142 359.032 338.709 358.465 339.408 358.465C340.107 358.465 340.674 359.032 340.674 359.733C340.674 360.433 340.107 361 339.408 361Z" fill="#937BFF"/>
<path fill-rule="evenodd" clip-rule="evenodd" d="M316.617 361C315.917 361 315.35 360.433 315.35 359.733C315.35 359.032 315.917 358.465 316.617 358.465C317.315 358.465 317.883 359.032 317.883 359.733C317.883 360.433 317.315 361 316.617 361Z" fill="#937BFF"/>
<path fill-rule="evenodd" clip-rule="evenodd" d="M293.825 361C293.126 361 292.559 360.433 292.559 359.733C292.559 359.032 293.126 358.465 293.825 358.465C294.525 358.465 295.092 359.032 295.092 359.733C295.092 360.433 294.525 361 293.825 361Z" fill="#937BFF"/>
<path fill-rule="evenodd" clip-rule="evenodd" d="M275.255 361C274.555 361 273.989 360.433 273.989 359.733C273.989 359.032 274.555 358.465 275.255 358.465C275.954 358.465 276.521 359.032 276.521 359.733C276.521 360.433 275.954 361 275.255 361Z" fill="#937BFF"/>
<path fill-rule="evenodd" clip-rule="evenodd" d="M252.464 112.535C251.764 112.535 251.198 111.969 251.198 111.268C251.198 110.568 251.764 110 252.464 110C253.163 110 253.73 110.568 253.73 111.268C253.73 111.969 253.163 112.535 252.464 112.535Z" fill="#937BFF"/>
<path fill-rule="evenodd" clip-rule="evenodd" d="M229.673 112.535C228.973 112.535 228.406 111.969 228.406 111.268C228.406 110.568 228.973 110 229.673 110C230.372 110 230.939 110.568 230.939 111.268C230.939 111.969 230.372 112.535 229.673 112.535Z" fill="#937BFF"/>
<path fill-rule="evenodd" clip-rule="evenodd" d="M206.882 112.535C206.182 112.535 205.615 111.969 205.615 111.268C205.615 110.568 206.182 110 206.882 110C207.581 110 208.148 110.568 208.148 111.268C208.148 111.969 207.581 112.535 206.882 112.535Z" fill="#937BFF"/>
<path fill-rule="evenodd" clip-rule="evenodd" d="M185.778 112.535C185.08 112.535 184.512 111.969 184.512 111.268C184.512 110.568 185.08 110 185.778 110C186.478 110 187.045 110.568 187.045 111.268C187.045 111.969 186.478 112.535 185.778 112.535Z" fill="#937BFF"/>
<path fill-rule="evenodd" clip-rule="evenodd" d="M262.594 134.508C261.894 134.508 261.327 133.942 261.327 133.241C261.327 132.541 261.894 131.973 262.594 131.973C263.292 131.973 263.859 132.541 263.859 133.241C263.859 133.942 263.292 134.508 262.594 134.508Z" fill="#937BFF"/>
<path fill-rule="evenodd" clip-rule="evenodd" d="M240.646 134.508C239.948 134.508 239.38 133.942 239.38 133.241C239.38 132.541 239.948 131.973 240.646 131.973C241.346 131.973 241.912 132.541 241.912 133.241C241.912 133.942 241.346 134.508 240.646 134.508Z" fill="#937BFF"/>
<path fill-rule="evenodd" clip-rule="evenodd" d="M217.855 134.508C217.155 134.508 216.589 133.942 216.589 133.241C216.589 132.541 217.155 131.973 217.855 131.973C218.553 131.973 219.121 132.541 219.121 133.241C219.121 133.942 218.553 134.508 217.855 134.508Z" fill="#937BFF"/>
<path fill-rule="evenodd" clip-rule="evenodd" d="M194.22 134.508C193.52 134.508 192.953 133.942 192.953 133.241C192.953 132.541 193.52 131.973 194.22 131.973C194.919 131.973 195.486 132.541 195.486 133.241C195.486 133.942 194.919 134.508 194.22 134.508Z" fill="#937BFF"/>
<path fill-rule="evenodd" clip-rule="evenodd" d="M176.493 134.508C175.794 134.508 175.227 133.942 175.227 133.241C175.227 132.541 175.794 131.973 176.493 131.973C177.193 131.973 177.759 132.541 177.759 133.241C177.759 133.942 177.193 134.508 176.493 134.508Z" fill="#937BFF"/>
<path fill-rule="evenodd" clip-rule="evenodd" d="M252.464 158.172C251.764 158.172 251.198 157.603 251.198 156.904C251.198 156.204 251.764 155.636 252.464 155.636C253.163 155.636 253.73 156.204 253.73 156.904C253.73 157.603 253.163 158.172 252.464 158.172Z" fill="#937BFF"/>
<path fill-rule="evenodd" clip-rule="evenodd" d="M229.673 158.172C228.973 158.172 228.406 157.603 228.406 156.904C228.406 156.204 228.973 155.636 229.673 155.636C230.372 155.636 230.939 156.204 230.939 156.904C230.939 157.603 230.372 158.172 229.673 158.172Z" fill="#937BFF"/>
<path fill-rule="evenodd" clip-rule="evenodd" d="M206.882 158.172C206.182 158.172 205.615 157.603 205.615 156.904C205.615 156.204 206.182 155.636 206.882 155.636C207.581 155.636 208.148 156.204 208.148 156.904C208.148 157.603 207.581 158.172 206.882 158.172Z" fill="#937BFF"/>
<path fill-rule="evenodd" clip-rule="evenodd" d="M185.778 158.172C185.08 158.172 184.512 157.603 184.512 156.904C184.512 156.204 185.08 155.636 185.778 155.636C186.478 155.636 187.045 156.204 187.045 156.904C187.045 157.603 186.478 158.172 185.778 158.172Z" fill="#937BFF"/>
<path fill-rule="evenodd" clip-rule="evenodd" d="M262.594 180.145C261.894 180.145 261.327 179.576 261.327 178.877C261.327 178.177 261.894 177.609 262.594 177.609C263.292 177.609 263.859 178.177 263.859 178.877C263.859 179.576 263.292 180.145 262.594 180.145Z" fill="#937BFF"/>
<path fill-rule="evenodd" clip-rule="evenodd" d="M240.646 180.145C239.948 180.145 239.38 179.576 239.38 178.877C239.38 178.177 239.948 177.609 240.646 177.609C241.346 177.609 241.912 178.177 241.912 178.877C241.912 179.576 241.346 180.145 240.646 180.145Z" fill="#937BFF"/>
<path fill-rule="evenodd" clip-rule="evenodd" d="M217.855 180.145C217.155 180.145 216.589 179.576 216.589 178.877C216.589 178.177 217.155 177.609 217.855 177.609C218.553 177.609 219.121 178.177 219.121 178.877C219.121 179.576 218.553 180.145 217.855 180.145Z" fill="#937BFF"/>
<path fill-rule="evenodd" clip-rule="evenodd" d="M194.22 180.145C193.52 180.145 192.953 179.576 192.953 178.877C192.953 178.177 193.52 177.609 194.22 177.609C194.919 177.609 195.486 178.177 195.486 178.877C195.486 179.576 194.919 180.145 194.22 180.145Z" fill="#937BFF"/>
<path fill-rule="evenodd" clip-rule="evenodd" d="M176.493 180.145C175.794 180.145 175.227 179.576 175.227 178.877C175.227 178.177 175.794 177.609 176.493 177.609C177.193 177.609 177.759 178.177 177.759 178.877C177.759 179.576 177.193 180.145 176.493 180.145Z" fill="#937BFF"/>
<path fill-rule="evenodd" clip-rule="evenodd" d="M252.464 204.653C251.764 204.653 251.198 204.085 251.198 203.386C251.198 202.685 251.764 202.118 252.464 202.118C253.163 202.118 253.73 202.685 253.73 203.386C253.73 204.085 253.163 204.653 252.464 204.653Z" fill="#937BFF"/>
<path fill-rule="evenodd" clip-rule="evenodd" d="M229.673 204.653C228.973 204.653 228.406 204.085 228.406 203.386C228.406 202.685 228.973 202.118 229.673 202.118C230.372 202.118 230.939 202.685 230.939 203.386C230.939 204.085 230.372 204.653 229.673 204.653Z" fill="#937BFF"/>
<path fill-rule="evenodd" clip-rule="evenodd" d="M206.882 204.653C206.182 204.653 205.615 204.085 205.615 203.386C205.615 202.685 206.182 202.118 206.882 202.118C207.581 202.118 208.148 202.685 208.148 203.386C208.148 204.085 207.581 204.653 206.882 204.653Z" fill="#937BFF"/>
<path fill-rule="evenodd" clip-rule="evenodd" d="M185.778 204.653C185.08 204.653 184.512 204.085 184.512 203.386C184.512 202.685 185.08 202.118 185.778 202.118C186.478 202.118 187.045 202.685 187.045 203.386C187.045 204.085 186.478 204.653 185.778 204.653Z" fill="#937BFF"/>
<path fill-rule="evenodd" clip-rule="evenodd" d="M262.594 225.781C261.894 225.781 261.327 225.215 261.327 224.514C261.327 223.813 261.894 223.246 262.594 223.246C263.292 223.246 263.859 223.813 263.859 224.514C263.859 225.215 263.292 225.781 262.594 225.781Z" fill="#937BFF"/>
<path fill-rule="evenodd" clip-rule="evenodd" d="M240.646 225.781C239.948 225.781 239.38 225.215 239.38 224.514C239.38 223.813 239.948 223.246 240.646 223.246C241.346 223.246 241.912 223.813 241.912 224.514C241.912 225.215 241.346 225.781 240.646 225.781Z" fill="#937BFF"/>
<path fill-rule="evenodd" clip-rule="evenodd" d="M217.855 225.781C217.155 225.781 216.589 225.215 216.589 224.514C216.589 223.813 217.155 223.246 217.855 223.246C218.553 223.246 219.121 223.813 219.121 224.514C219.121 225.215 218.553 225.781 217.855 225.781Z" fill="#937BFF"/>
<path fill-rule="evenodd" clip-rule="evenodd" d="M194.22 225.781C193.52 225.781 192.953 225.215 192.953 224.514C192.953 223.813 193.52 223.246 194.22 223.246C194.919 223.246 195.486 223.813 195.486 224.514C195.486 225.215 194.919 225.781 194.22 225.781Z" fill="#937BFF"/>
<path fill-rule="evenodd" clip-rule="evenodd" d="M176.493 225.781C175.794 225.781 175.227 225.215 175.227 224.514C175.227 223.813 175.794 223.246 176.493 223.246C177.193 223.246 177.759 223.813 177.759 224.514C177.759 225.215 177.193 225.781 176.493 225.781Z" fill="#937BFF"/>
<path fill-rule="evenodd" clip-rule="evenodd" d="M252.464 248.599C251.764 248.599 251.198 248.033 251.198 247.332C251.198 246.632 251.764 246.064 252.464 246.064C253.163 246.064 253.73 246.632 253.73 247.332C253.73 248.033 253.163 248.599 252.464 248.599Z" fill="#937BFF"/>
<path fill-rule="evenodd" clip-rule="evenodd" d="M229.673 248.599C228.973 248.599 228.406 248.033 228.406 247.332C228.406 246.632 228.973 246.064 229.673 246.064C230.372 246.064 230.939 246.632 230.939 247.332C230.939 248.033 230.372 248.599 229.673 248.599Z" fill="#937BFF"/>
<path fill-rule="evenodd" clip-rule="evenodd" d="M206.882 248.599C206.182 248.599 205.615 248.033 205.615 247.332C205.615 246.632 206.182 246.064 206.882 246.064C207.581 246.064 208.148 246.632 208.148 247.332C208.148 248.033 207.581 248.599 206.882 248.599Z" fill="#937BFF"/>
<path fill-rule="evenodd" clip-rule="evenodd" d="M185.778 248.599C185.08 248.599 184.512 248.033 184.512 247.332C184.512 246.632 185.08 246.064 185.778 246.064C186.478 246.064 187.045 246.632 187.045 247.332C187.045 248.033 186.478 248.599 185.778 248.599Z" fill="#937BFF"/>
<path fill-rule="evenodd" clip-rule="evenodd" d="M262.594 270.572C261.894 270.572 261.327 270.004 261.327 269.305C261.327 268.604 261.894 268.037 262.594 268.037C263.292 268.037 263.859 268.604 263.859 269.305C263.859 270.004 263.292 270.572 262.594 270.572Z" fill="#937BFF"/>
<path fill-rule="evenodd" clip-rule="evenodd" d="M240.646 270.572C239.948 270.572 239.38 270.004 239.38 269.305C239.38 268.604 239.948 268.037 240.646 268.037C241.346 268.037 241.912 268.604 241.912 269.305C241.912 270.004 241.346 270.572 240.646 270.572Z" fill="#937BFF"/>
<path fill-rule="evenodd" clip-rule="evenodd" d="M217.855 270.572C217.155 270.572 216.589 270.004 216.589 269.305C216.589 268.604 217.155 268.037 217.855 268.037C218.553 268.037 219.121 268.604 219.121 269.305C219.121 270.004 218.553 270.572 217.855 270.572Z" fill="#937BFF"/>
<path fill-rule="evenodd" clip-rule="evenodd" d="M194.22 270.572C193.52 270.572 192.953 270.004 192.953 269.305C192.953 268.604 193.52 268.037 194.22 268.037C194.919 268.037 195.486 268.604 195.486 269.305C195.486 270.004 194.919 270.572 194.22 270.572Z" fill="#937BFF"/>
<path fill-rule="evenodd" clip-rule="evenodd" d="M176.493 271.417C175.794 271.417 175.227 270.849 175.227 270.15C175.227 269.449 175.794 268.882 176.493 268.882C177.193 268.882 177.759 269.449 177.759 270.15C177.759 270.849 177.193 271.417 176.493 271.417Z" fill="#937BFF"/>
<path fill-rule="evenodd" clip-rule="evenodd" d="M252.464 294.236C251.764 294.236 251.198 293.667 251.198 292.968C251.198 292.268 251.764 291.7 252.464 291.7C253.163 291.7 253.73 292.268 253.73 292.968C253.73 293.667 253.163 294.236 252.464 294.236Z" fill="#937BFF"/>
<path fill-rule="evenodd" clip-rule="evenodd" d="M229.673 294.236C228.973 294.236 228.406 293.667 228.406 292.968C228.406 292.268 228.973 291.7 229.673 291.7C230.372 291.7 230.939 292.268 230.939 292.968C230.939 293.667 230.372 294.236 229.673 294.236Z" fill="#937BFF"/>
<path fill-rule="evenodd" clip-rule="evenodd" d="M206.882 294.236C206.182 294.236 205.615 293.667 205.615 292.968C205.615 292.268 206.182 291.7 206.882 291.7C207.581 291.7 208.148 292.268 208.148 292.968C208.148 293.667 207.581 294.236 206.882 294.236Z" fill="#937BFF"/>
<path fill-rule="evenodd" clip-rule="evenodd" d="M185.778 294.236C185.08 294.236 184.512 293.667 184.512 292.968C184.512 292.268 185.08 291.7 185.778 291.7C186.478 291.7 187.045 292.268 187.045 292.968C187.045 293.667 186.478 294.236 185.778 294.236Z" fill="#937BFF"/>
<path fill-rule="evenodd" clip-rule="evenodd" d="M262.594 316.209C261.894 316.209 261.327 315.64 261.327 314.941C261.327 314.241 261.894 313.673 262.594 313.673C263.292 313.673 263.859 314.241 263.859 314.941C263.859 315.64 263.292 316.209 262.594 316.209Z" fill="#937BFF"/>
<path fill-rule="evenodd" clip-rule="evenodd" d="M240.646 316.209C239.948 316.209 239.38 315.64 239.38 314.941C239.38 314.241 239.948 313.673 240.646 313.673C241.346 313.673 241.912 314.241 241.912 314.941C241.912 315.64 241.346 316.209 240.646 316.209Z" fill="#937BFF"/>
<path fill-rule="evenodd" clip-rule="evenodd" d="M217.855 316.209C217.155 316.209 216.589 315.64 216.589 314.941C216.589 314.241 217.155 313.673 217.855 313.673C218.553 313.673 219.121 314.241 219.121 314.941C219.121 315.64 218.553 316.209 217.855 316.209Z" fill="#937BFF"/>
<path fill-rule="evenodd" clip-rule="evenodd" d="M194.22 316.209C193.52 316.209 192.953 315.64 192.953 314.941C192.953 314.241 193.52 313.673 194.22 313.673C194.919 313.673 195.486 314.241 195.486 314.941C195.486 315.64 194.919 316.209 194.22 316.209Z" fill="#937BFF"/>
<path fill-rule="evenodd" clip-rule="evenodd" d="M176.493 316.209C175.794 316.209 175.227 315.64 175.227 314.941C175.227 314.241 175.794 313.673 176.493 313.673C177.193 313.673 177.759 314.241 177.759 314.941C177.759 315.64 177.193 316.209 176.493 316.209Z" fill="#937BFF"/>
<path fill-rule="evenodd" clip-rule="evenodd" d="M252.464 338.182C251.764 338.182 251.198 337.615 251.198 336.915C251.198 336.214 251.764 335.646 252.464 335.646C253.163 335.646 253.73 336.214 253.73 336.915C253.73 337.615 253.163 338.182 252.464 338.182Z" fill="#937BFF"/>
<path fill-rule="evenodd" clip-rule="evenodd" d="M229.673 338.182C228.973 338.182 228.406 337.615 228.406 336.915C228.406 336.214 228.973 335.646 229.673 335.646C230.372 335.646 230.939 336.214 230.939 336.915C230.939 337.615 230.372 338.182 229.673 338.182Z" fill="#937BFF"/>
<path fill-rule="evenodd" clip-rule="evenodd" d="M206.882 338.182C206.182 338.182 205.615 337.615 205.615 336.915C205.615 336.214 206.182 335.646 206.882 335.646C207.581 335.646 208.148 336.214 208.148 336.915C208.148 337.615 207.581 338.182 206.882 338.182Z" fill="#937BFF"/>
<path fill-rule="evenodd" clip-rule="evenodd" d="M176.493 338.182C175.795 338.182 175.227 337.615 175.227 336.915C175.227 336.214 175.795 335.646 176.493 335.646C177.193 335.646 177.759 336.214 177.759 336.915C177.759 337.615 177.193 338.182 176.493 338.182Z" fill="#937BFF"/>
<path fill-rule="evenodd" clip-rule="evenodd" d="M262.594 361C261.894 361 261.327 360.433 261.327 359.733C261.327 359.032 261.894 358.465 262.594 358.465C263.292 358.465 263.859 359.032 263.859 359.733C263.859 360.433 263.292 361 262.594 361Z" fill="#937BFF"/>
<path fill-rule="evenodd" clip-rule="evenodd" d="M240.646 361C239.948 361 239.38 360.433 239.38 359.733C239.38 359.032 239.948 358.465 240.646 358.465C241.346 358.465 241.912 359.032 241.912 359.733C241.912 360.433 241.346 361 240.646 361Z" fill="#937BFF"/>
<path fill-rule="evenodd" clip-rule="evenodd" d="M217.855 361C217.155 361 216.589 360.433 216.589 359.733C216.589 359.032 217.155 358.465 217.855 358.465C218.553 358.465 219.121 359.032 219.121 359.733C219.121 360.433 218.553 361 217.855 361Z" fill="#937BFF"/>
<path fill-rule="evenodd" clip-rule="evenodd" d="M194.22 361C193.52 361 192.953 360.433 192.953 359.733C192.953 359.032 193.52 358.465 194.22 358.465C194.919 358.465 195.486 359.032 195.486 359.733C195.486 360.433 194.919 361 194.22 361Z" fill="#937BFF"/>
<path fill-rule="evenodd" clip-rule="evenodd" d="M176.493 361C175.794 361 175.227 360.433 175.227 359.733C175.227 359.032 175.794 358.465 176.493 358.465C177.193 358.465 177.759 359.032 177.759 359.733C177.759 360.433 177.193 361 176.493 361Z" fill="#937BFF"/>
</g>
<g clip-path="url(#clip0_20_1534)">
<rect x="192.227" y="224.319" width="252" height="251.154" rx="89" fill="#92BBFC"/>
<path d="M267.92 316.995L270.062 324.429L278.378 322.098V357H287.072V312.9H279.512L267.92 316.995ZM322.523 341.439V330.981H313.766V341.439H302.3L316.916 312.9H307.592L292.913 341.439V349.503H313.766V357H322.523V349.503H327.248V341.439H322.523ZM347.98 357.882C353.524 357.882 357.871 355.803 360.958 351.645C364.045 347.424 365.62 341.88 365.62 334.95C365.62 328.02 364.045 322.476 360.958 318.318C357.871 314.097 353.524 312.018 347.98 312.018C342.499 312.018 338.152 314.097 335.002 318.318C331.915 322.476 330.34 328.02 330.34 334.95C330.34 341.88 331.915 347.424 335.002 351.645C338.152 355.803 342.499 357.882 347.98 357.882ZM356.989 334.95C356.989 344.274 353.839 349.377 347.98 349.377C342.121 349.377 339.034 344.337 339.034 334.95C339.034 325.563 342.121 320.46 347.98 320.46C353.839 320.46 356.989 325.563 356.989 334.95Z" fill="white"/>
<path d="M252.435 385.39H261.58V382.693H252.435V376.028H262.355V373.3H249.552V395H262.51V392.272H252.435V385.39ZM282.451 379.097C280.281 379.097 278.669 379.965 277.584 381.732C276.623 379.965 275.104 379.097 273.027 379.097C271.012 379.097 269.462 379.934 268.408 381.577V379.5H265.711V395H268.408V386.382C268.408 383.251 270.113 381.67 272.376 381.67C274.391 381.67 275.662 383.065 275.662 385.452V395H278.359V386.382C278.359 383.189 279.847 381.67 282.172 381.67C284.249 381.67 285.582 383.065 285.582 385.452V395H288.279V385.359C288.279 381.515 285.923 379.097 282.451 379.097ZM300.575 379.097C298.002 379.097 296.049 380.12 294.716 382.166V379.5H292.019V401.2H294.716V392.334C296.049 394.38 298.002 395.403 300.575 395.403C302.745 395.403 304.605 394.628 306.124 393.047C307.643 391.466 308.418 389.513 308.418 387.25C308.418 384.987 307.643 383.065 306.124 381.484C304.605 379.903 302.745 379.097 300.575 379.097ZM300.234 392.799C298.653 392.799 297.351 392.272 296.297 391.218C295.243 390.133 294.716 388.831 294.716 387.25C294.716 385.669 295.243 384.367 296.297 383.313C297.351 382.228 298.653 381.701 300.234 381.701C301.784 381.701 303.086 382.228 304.14 383.313C305.194 384.367 305.721 385.669 305.721 387.25C305.721 388.831 305.194 390.133 304.14 391.218C303.086 392.272 301.784 392.799 300.234 392.799ZM314.333 395V372.37H311.636V395H314.333ZM331.53 393.047C333.111 391.466 333.917 389.544 333.917 387.25C333.917 384.956 333.111 383.034 331.53 381.453C329.949 379.872 327.996 379.097 325.733 379.097C323.47 379.097 321.517 379.872 319.936 381.453C318.355 383.034 317.58 384.956 317.58 387.25C317.58 389.544 318.355 391.466 319.936 393.047C321.517 394.628 323.47 395.403 325.733 395.403C327.996 395.403 329.949 394.628 331.53 393.047ZM325.733 392.768C324.214 392.768 322.912 392.241 321.858 391.187C320.804 390.133 320.277 388.831 320.277 387.25C320.277 385.669 320.804 384.367 321.858 383.313C322.912 382.259 324.214 381.732 325.733 381.732C327.283 381.732 328.585 382.259 329.639 383.313C330.693 384.367 331.22 385.669 331.22 387.25C331.22 388.831 330.693 390.133 329.639 391.187C328.585 392.241 327.283 392.768 325.733 392.768ZM342.846 391.652L337.576 379.5H334.693L341.451 394.938L341.172 395.527C340.273 397.79 338.878 398.844 336.987 398.689V401.2C340.087 401.417 342.536 399.464 343.869 395.961L350.193 379.5H347.31L342.846 391.652ZM367.325 388.49C367.387 388.087 367.418 387.684 367.418 387.281C367.418 385.018 366.705 383.096 365.248 381.515C363.822 379.903 361.962 379.097 359.699 379.097C357.312 379.097 355.359 379.872 353.84 381.422C352.321 382.972 351.577 384.925 351.577 387.25C351.577 389.606 352.352 391.559 353.871 393.109C355.421 394.628 357.436 395.403 359.885 395.403C362.923 395.403 365.186 394.225 366.705 391.9L364.411 390.598C363.481 392.117 361.993 392.861 359.947 392.861C357.002 392.861 354.863 391.249 354.336 388.49H367.325ZM359.699 381.639C362.179 381.639 364.225 383.189 364.69 386.134H354.336C354.801 383.406 356.816 381.639 359.699 381.639ZM385.398 388.49C385.46 388.087 385.491 387.684 385.491 387.281C385.491 385.018 384.778 383.096 383.321 381.515C381.895 379.903 380.035 379.097 377.772 379.097C375.385 379.097 373.432 379.872 371.913 381.422C370.394 382.972 369.65 384.925 369.65 387.25C369.65 389.606 370.425 391.559 371.944 393.109C373.494 394.628 375.509 395.403 377.958 395.403C380.996 395.403 383.259 394.225 384.778 391.9L382.484 390.598C381.554 392.117 380.066 392.861 378.02 392.861C375.075 392.861 372.936 391.249 372.409 388.49H385.398ZM377.772 381.639C380.252 381.639 382.298 383.189 382.763 386.134H372.409C372.874 383.406 374.889 381.639 377.772 381.639Z" fill="white"/>
</g>
<g clip-path="url(#clip1_20_1534)">
<rect opacity="0.715053" x="125.227" y="66" width="198" height="198" rx="70" fill="#F990B6"/>
<path d="M192.007 134.63V129.5H172.207V135.305H184.537L178.327 143.405L180.712 147.005H182.062C185.257 147.005 187.102 148.715 187.102 151.28C187.102 153.935 185.257 155.555 182.062 155.555C179.182 155.555 177.337 154.34 176.572 151.91L171.262 154.97C173.017 159.335 177.157 161.63 182.062 161.63C185.212 161.63 187.867 160.73 190.027 158.885C192.232 157.04 193.312 154.52 193.312 151.28C193.312 146.825 190.387 143.54 186.112 142.28L192.007 134.63ZM208.923 161.63C212.883 161.63 215.988 160.145 218.193 157.175C220.398 154.16 221.523 150.2 221.523 145.25C221.523 140.3 220.398 136.34 218.193 133.37C215.988 130.355 212.883 128.87 208.923 128.87C205.008 128.87 201.903 130.355 199.653 133.37C197.448 136.34 196.323 140.3 196.323 145.25C196.323 150.2 197.448 154.16 199.653 157.175C201.903 160.145 205.008 161.63 208.923 161.63ZM215.358 145.25C215.358 151.91 213.108 155.555 208.923 155.555C204.738 155.555 202.533 151.955 202.533 145.25C202.533 138.545 204.738 134.9 208.923 134.9C213.108 134.9 215.358 138.545 215.358 145.25ZM237.268 161.63C241.228 161.63 244.333 160.145 246.538 157.175C248.743 154.16 249.868 150.2 249.868 145.25C249.868 140.3 248.743 136.34 246.538 133.37C244.333 130.355 241.228 128.87 237.268 128.87C233.353 128.87 230.248 130.355 227.998 133.37C225.793 136.34 224.668 140.3 224.668 145.25C224.668 150.2 225.793 154.16 227.998 157.175C230.248 160.145 233.353 161.63 237.268 161.63ZM243.703 145.25C243.703 151.91 241.453 155.555 237.268 155.555C233.083 155.555 230.878 151.955 230.878 145.25C230.878 138.545 233.083 134.9 237.268 134.9C241.453 134.9 243.703 138.545 243.703 145.25ZM266.648 142.505V135.125H261.203V142.505H253.823V147.95H261.203V155.375H266.648V147.95H274.073V142.505H266.648Z" fill="white"/>
<path d="M178.45 178.27V199.97H181.333V192.22H186.324C188.339 192.22 189.982 191.538 191.315 190.205C192.648 188.872 193.33 187.198 193.33 185.245C193.33 183.261 192.648 181.618 191.315 180.285C189.982 178.952 188.339 178.27 186.324 178.27H178.45ZM181.333 189.523V180.967H186.324C188.711 180.967 190.478 182.765 190.478 185.245C190.478 186.454 190.075 187.477 189.3 188.314C188.525 189.12 187.533 189.523 186.324 189.523H181.333ZM198.82 184.47H196.123V199.97H198.82V191.755C198.82 190.05 199.285 188.841 200.246 188.066C201.207 187.291 202.323 186.95 203.656 187.012V184.191C201.331 184.191 199.719 185.152 198.82 187.074V184.47ZM219.377 198.017C220.958 196.436 221.764 194.514 221.764 192.22C221.764 189.926 220.958 188.004 219.377 186.423C217.796 184.842 215.843 184.067 213.58 184.067C211.317 184.067 209.364 184.842 207.783 186.423C206.202 188.004 205.427 189.926 205.427 192.22C205.427 194.514 206.202 196.436 207.783 198.017C209.364 199.598 211.317 200.373 213.58 200.373C215.843 200.373 217.796 199.598 219.377 198.017ZM213.58 197.738C212.061 197.738 210.759 197.211 209.705 196.157C208.651 195.103 208.124 193.801 208.124 192.22C208.124 190.639 208.651 189.337 209.705 188.283C210.759 187.229 212.061 186.702 213.58 186.702C215.13 186.702 216.432 187.229 217.486 188.283C218.54 189.337 219.067 190.639 219.067 192.22C219.067 193.801 218.54 195.103 217.486 196.157C216.432 197.211 215.13 197.738 213.58 197.738ZM225.171 200.9C225.171 203.287 224.148 204.186 221.885 203.969V206.573C225.822 206.852 227.868 204.899 227.868 200.9V184.47H225.171V200.9ZM226.535 182.548C227.527 182.548 228.333 181.742 228.333 180.75C228.333 179.758 227.527 178.921 226.535 178.921C225.512 178.921 224.706 179.758 224.706 180.75C224.706 181.742 225.512 182.548 226.535 182.548ZM246.847 193.46C246.909 193.057 246.94 192.654 246.94 192.251C246.94 189.988 246.227 188.066 244.77 186.485C243.344 184.873 241.484 184.067 239.221 184.067C236.834 184.067 234.881 184.842 233.362 186.392C231.843 187.942 231.099 189.895 231.099 192.22C231.099 194.576 231.874 196.529 233.393 198.079C234.943 199.598 236.958 200.373 239.407 200.373C242.445 200.373 244.708 199.195 246.227 196.87L243.933 195.568C243.003 197.087 241.515 197.831 239.469 197.831C236.524 197.831 234.385 196.219 233.858 193.46H246.847ZM239.221 186.609C241.701 186.609 243.747 188.159 244.212 191.104H233.858C234.323 188.376 236.338 186.609 239.221 186.609ZM257.325 200.373C260.332 200.373 262.967 198.792 264.3 196.343L262.006 195.01C261.138 196.653 259.402 197.707 257.325 197.707C255.775 197.707 254.473 197.18 253.419 196.126C252.396 195.072 251.869 193.77 251.869 192.22C251.869 190.639 252.396 189.337 253.419 188.283C254.473 187.229 255.775 186.702 257.325 186.702C259.402 186.702 261.138 187.787 261.913 189.43L264.176 188.128C262.967 185.648 260.394 184.067 257.325 184.067C255 184.067 253.047 184.842 251.497 186.423C249.947 187.973 249.172 189.895 249.172 192.22C249.172 194.545 249.947 196.467 251.497 198.048C253.047 199.598 255 200.373 257.325 200.373ZM275.395 184.47H271.272V180.13L268.575 180.936V184.47H265.506V187.074H268.575V195.475C268.575 199.319 270.683 200.59 275.395 199.97V197.552C272.636 197.676 271.272 197.862 271.272 195.475V187.074H275.395V184.47Z" fill="white"/>
</g>
<g clip-path="url(#clip2_20_1534)">
<rect opacity="0.715053" x="292.227" y="41" width="252" height="251" rx="89" fill="#68DEF0"/>
<path d="M351.693 126.995L353.835 134.429L362.151 132.098V167H370.845V122.9H363.285L351.693 126.995ZM406.296 151.439V140.981H397.539V151.439H386.073L400.689 122.9H391.365L376.686 151.439V159.503H397.539V167H406.296V159.503H411.021V151.439H406.296ZM433.517 144.32L449.834 122.9H439.817L424.697 142.367V122.9H416.003V167H424.697V146.336L440.447 167H450.464L433.517 144.32ZM468.209 141.107V130.775H460.586V141.107H450.254V148.73H460.586V159.125H468.209V148.73H478.604V141.107H468.209Z" fill="white"/>
<path d="M377.611 198.537C377.611 201.612 378.595 204.113 380.604 205.958C382.613 207.803 385.237 208.705 388.394 208.705C391.551 208.705 394.134 207.803 396.143 205.958C398.152 204.113 399.136 201.612 399.136 198.537V179.472H395.364V198.373C395.364 202.432 392.863 204.974 388.394 204.974C383.925 204.974 381.424 202.432 381.424 198.373V179.472H377.611V198.537ZM407.672 193.207C407.672 191.444 409.312 190.46 411.321 190.46C413.494 190.46 414.97 191.321 415.708 193.084L418.701 191.403C417.389 188.738 414.642 187.139 411.321 187.139C409.23 187.139 407.508 187.713 406.114 188.861C404.761 190.009 404.064 191.485 404.064 193.248C404.064 197.594 408.246 198.66 411.485 199.521C413.74 200.054 415.544 200.956 415.544 202.555C415.544 204.482 413.822 205.343 411.485 205.343C408.984 205.343 407.057 204.113 406.401 202.145L403.326 203.908C404.515 206.819 407.508 208.705 411.485 208.705C413.74 208.705 415.544 208.131 416.979 207.024C418.414 205.917 419.152 204.4 419.152 202.555C419.193 198.168 414.929 196.979 411.731 196.282C409.476 195.667 407.672 194.806 407.672 193.207ZM443.055 199.562C443.137 199.029 443.178 198.496 443.178 197.963C443.178 194.97 442.235 192.428 440.308 190.337C438.422 188.205 435.962 187.139 432.969 187.139C429.812 187.139 427.229 188.164 425.22 190.214C423.211 192.264 422.227 194.847 422.227 197.922C422.227 201.038 423.252 203.621 425.261 205.671C427.311 207.68 429.976 208.705 433.215 208.705C437.233 208.705 440.226 207.147 442.235 204.072L439.201 202.35C437.971 204.359 436.003 205.343 433.297 205.343C429.402 205.343 426.573 203.211 425.876 199.562H443.055ZM432.969 190.501C436.249 190.501 438.955 192.551 439.57 196.446H425.876C426.491 192.838 429.156 190.501 432.969 190.501ZM450.846 187.672H447.279V208.172H450.846V197.307C450.846 195.052 451.461 193.453 452.732 192.428C454.003 191.403 455.479 190.952 457.242 191.034V187.303C454.167 187.303 452.035 188.574 450.846 191.116V187.672Z" fill="white"/>
</g>
<circle cx="150.727" cy="350.5" r="10.5" fill="#FCBC14"/>
<circle cx="501.727" cy="338.5" r="7.5" fill="#917FE5"/>
<circle cx="232.227" cy="19" r="19" fill="#9ACF61"/>
<circle cx="420" cy="13" r="13" fill="#EEEDF2"/>
<circle cx="473.5" cy="506.5" r="6.5" fill="#EEEDF2"/>
<circle cx="13" cy="175" r="13" fill="#EEEDF2"/>
<defs>
<clipPath id="clip0_20_1534">
<rect width="252" height="252" fill="white" transform="translate(192.227 224)"/>
</clipPath>
<clipPath id="clip1_20_1534">
<rect width="198" height="198" fill="white" transform="translate(125.227 66)"/>
</clipPath>
<clipPath id="clip2_20_1534">
<rect width="252" height="251" fill="white" transform="translate(292.227 41)"/>
</clipPath>
</defs>
</svg>
