<svg width="129" height="35" viewBox="0 0 129 35" fill="none" xmlns="http://www.w3.org/2000/svg">
<path d="M51.1 18.81L42.1 6H38.95V27H43.09V14.16L52.09 27H55.24V6H51.1V18.81ZM71.7355 25.14C73.2655 23.61 74.0455 21.72 74.0455 19.5C74.0455 17.28 73.2655 15.42 71.7355 13.89C70.2055 12.36 68.3155 11.58 66.0955 11.58C63.8755 11.58 61.9855 12.36 60.4555 13.89C58.9255 15.42 58.1755 17.28 58.1755 19.5C58.1755 21.72 58.9255 23.61 60.4555 25.14C61.9855 26.67 63.8755 27.42 66.0955 27.42C68.3155 27.42 70.2055 26.67 71.7355 25.14ZM63.1855 22.47C62.4355 21.69 62.0455 20.7 62.0455 19.5C62.0455 18.3 62.4355 17.31 63.1855 16.53C63.9655 15.75 64.9255 15.36 66.0955 15.36C67.2655 15.36 68.2255 15.75 69.0055 16.53C69.7855 17.31 70.1755 18.3 70.1755 19.5C70.1755 20.7 69.7855 21.69 69.0055 22.47C68.2255 23.25 67.2655 23.64 66.0955 23.64C64.9255 23.64 63.9655 23.25 63.1855 22.47ZM80.638 12H76.768V27H80.638V19.83C80.638 18.39 81.088 17.37 82.018 16.74C82.948 16.11 84.028 15.87 85.198 16.02V11.7C83.158 11.7 81.358 12.66 80.638 14.58V12ZM102.041 21.09C102.131 20.52 102.191 20.01 102.191 19.5C102.191 17.25 101.471 15.39 100.031 13.86C98.6214 12.33 96.7914 11.58 94.6014 11.58C92.2914 11.58 90.3714 12.33 88.9014 13.86C87.4314 15.36 86.6814 17.25 86.6814 19.5C86.6814 21.78 87.4314 23.67 88.9314 25.17C90.4314 26.67 92.4114 27.42 94.9014 27.42C97.7814 27.42 99.9714 26.34 101.441 24.21L98.3214 22.41C97.5714 23.4 96.4314 23.91 94.9614 23.91C92.6514 23.91 91.2414 22.98 90.7314 21.09H102.041ZM90.6714 18.09C91.1214 16.17 92.5314 15.06 94.6014 15.06C96.3714 15.06 97.8714 16.05 98.3214 18.09H90.6714ZM113.233 11.58C111.193 11.58 109.693 12.27 108.763 13.68V12H104.893V27H108.763V18.9C108.763 16.41 110.053 15.18 112.063 15.18C113.863 15.18 115.033 16.26 115.033 18.27V27H118.903V17.79C118.903 15.84 118.363 14.34 117.283 13.23C116.233 12.12 114.883 11.58 113.233 11.58ZM126.258 26.64C127.248 25.65 127.248 24.03 126.258 23.04C125.268 22.05 123.648 22.05 122.658 23.04C121.668 24.03 121.668 25.65 122.658 26.64C123.648 27.63 125.268 27.63 126.258 26.64Z" fill="white"/>
<path fill-rule="evenodd" clip-rule="evenodd" d="M13 33C21.8366 33 29 25.6127 29 16.5C29 7.3873 21.8366 0 13 0" fill="#FCBC14"/>
<path fill-rule="evenodd" clip-rule="evenodd" d="M13 8C5.8203 8 0 13.5964 0 20.5C0 27.4036 5.8203 33 13 33" fill="#7E67E9"/>
</svg>
