<svg width="129" height="33" viewBox="0 0 129 33" fill="none" xmlns="http://www.w3.org/2000/svg">
<g clip-path="url(#clip0_19_1521)">
<path d="M51.1 17.81L42.1 5H38.95V26H43.09V13.16L52.09 26H55.24V5H51.1V17.81ZM71.7355 24.14C73.2655 22.61 74.0455 20.72 74.0455 18.5C74.0455 16.28 73.2655 14.42 71.7355 12.89C70.2055 11.36 68.3155 10.58 66.0955 10.58C63.8755 10.58 61.9855 11.36 60.4555 12.89C58.9255 14.42 58.1755 16.28 58.1755 18.5C58.1755 20.72 58.9255 22.61 60.4555 24.14C61.9855 25.67 63.8755 26.42 66.0955 26.42C68.3155 26.42 70.2055 25.67 71.7355 24.14ZM63.1855 21.47C62.4355 20.69 62.0455 19.7 62.0455 18.5C62.0455 17.3 62.4355 16.31 63.1855 15.53C63.9655 14.75 64.9255 14.36 66.0955 14.36C67.2655 14.36 68.2255 14.75 69.0055 15.53C69.7855 16.31 70.1755 17.3 70.1755 18.5C70.1755 19.7 69.7855 20.69 69.0055 21.47C68.2255 22.25 67.2655 22.64 66.0955 22.64C64.9255 22.64 63.9655 22.25 63.1855 21.47ZM80.638 11H76.768V26H80.638V18.83C80.638 17.39 81.088 16.37 82.018 15.74C82.948 15.11 84.028 14.87 85.198 15.02V10.7C83.158 10.7 81.358 11.66 80.638 13.58V11ZM102.041 20.09C102.131 19.52 102.191 19.01 102.191 18.5C102.191 16.25 101.471 14.39 100.031 12.86C98.6214 11.33 96.7914 10.58 94.6014 10.58C92.2914 10.58 90.3714 11.33 88.9014 12.86C87.4314 14.36 86.6814 16.25 86.6814 18.5C86.6814 20.78 87.4314 22.67 88.9314 24.17C90.4314 25.67 92.4114 26.42 94.9014 26.42C97.7814 26.42 99.9714 25.34 101.441 23.21L98.3214 21.41C97.5714 22.4 96.4314 22.91 94.9614 22.91C92.6514 22.91 91.2414 21.98 90.7314 20.09H102.041ZM90.6714 17.09C91.1214 15.17 92.5314 14.06 94.6014 14.06C96.3714 14.06 97.8714 15.05 98.3214 17.09H90.6714ZM113.233 10.58C111.193 10.58 109.693 11.27 108.763 12.68V11H104.893V26H108.763V17.9C108.763 15.41 110.053 14.18 112.063 14.18C113.863 14.18 115.033 15.26 115.033 17.27V26H118.903V16.79C118.903 14.84 118.363 13.34 117.283 12.23C116.233 11.12 114.883 10.58 113.233 10.58ZM126.258 25.64C127.248 24.65 127.248 23.03 126.258 22.04C125.268 21.05 123.648 21.05 122.658 22.04C121.668 23.03 121.668 24.65 122.658 25.64C123.648 26.63 125.268 26.63 126.258 25.64Z" fill="#2D2E2E"/>
<path fill-rule="evenodd" clip-rule="evenodd" d="M13 33C21.8366 33 29 25.6127 29 16.5C29 7.3873 21.8366 0 13 0" fill="#FCBC14"/>
<path fill-rule="evenodd" clip-rule="evenodd" d="M13 8C5.8203 8 0 13.5964 0 20.5C0 27.4036 5.8203 33 13 33" fill="#7E67E9"/>
</g>
<defs>
<clipPath id="clip0_19_1521">
<rect width="129" height="33" fill="white"/>
</clipPath>
</defs>
</svg>
