<svg width="49" height="49" viewBox="0 0 49 49" fill="none" xmlns="http://www.w3.org/2000/svg">
<ellipse cx="25" cy="24.5" rx="24" ry="23.5" fill="white" stroke="#EDEDED"/>
<path d="M26.3214 24.4999L21.9107 28.6901C21.5853 28.9993 21.5853 29.5005 21.9107 29.8097C22.2361 30.1189 22.7638 30.1189 23.0892 29.8097L28.0892 25.0597C28.4147 24.7505 28.4147 24.2493 28.0892 23.9401L23.0892 19.1901C22.7638 18.881 22.2361 18.881 21.9107 19.1901C21.5853 19.4993 21.5853 20.0005 21.9107 20.3097L26.3214 24.4999Z" fill="black"/>
<mask id="mask0_19_1334" style="mask-type:luminance" maskUnits="userSpaceOnUse" x="21" y="18" width="8" height="13">
<path d="M26.3214 24.4999L21.9107 28.6901C21.5853 28.9993 21.5853 29.5005 21.9107 29.8097C22.2361 30.1189 22.7638 30.1189 23.0892 29.8097L28.0892 25.0597C28.4147 24.7505 28.4147 24.2493 28.0892 23.9401L23.0892 19.1901C22.7638 18.881 22.2361 18.881 21.9107 19.1901C21.5853 19.4993 21.5853 20.0005 21.9107 20.3097L26.3214 24.4999Z" fill="white"/>
</mask>
<g mask="url(#mask0_19_1334)">
<rect x="15" y="15" width="20" height="19" fill="black"/>
</g>
</svg>
