<svg width="58" height="89" viewBox="0 0 58 89" fill="none" xmlns="http://www.w3.org/2000/svg">
<rect y="0.13208" width="58" height="88" rx="29" fill="#F9F8F8"/>
<rect y="0.13208" width="58" height="58" rx="29" fill="#FAC2CF"/>
<path d="M33.68 24.4121V22.1321H24.88V24.7121H30.36L27.6 28.3121L28.66 29.9121H29.26C30.68 29.9121 31.5 30.6721 31.5 31.8121C31.5 32.9921 30.68 33.7121 29.26 33.7121C27.98 33.7121 27.16 33.1721 26.82 32.0921L24.46 33.4521C25.24 35.3921 27.08 36.4121 29.26 36.4121C30.66 36.4121 31.84 36.0121 32.8 35.1921C33.78 34.3721 34.26 33.2521 34.26 31.8121C34.26 29.8321 32.96 28.3721 31.06 27.8121L33.68 24.4121Z" fill="white"/>
</svg>
