<svg width="58" height="89" viewBox="0 0 58 89" fill="none" xmlns="http://www.w3.org/2000/svg">
<rect y="0.13208" width="58" height="88" rx="29" fill="#F9F8F8"/>
<rect y="0.13208" width="58" height="58" rx="29" fill="#BCD5FC"/>
<path d="M33.9 36.1321V33.4721H28.64L31.38 30.7321C32.92 29.1921 33.68 27.7121 33.68 26.2521C33.68 24.9121 33.22 23.8321 32.32 23.0521C31.42 22.2521 30.32 21.8521 29.06 21.8521C27.08 21.8521 25.32 22.8921 24.44 24.8121L26.76 26.1721C27.26 25.0721 28.04 24.5321 29.1 24.5321C30.16 24.5321 30.92 25.2521 30.92 26.3521C30.92 27.0921 30.38 28.0321 29.32 29.1521L24.54 34.0721V36.1321H33.9Z" fill="white"/>
</svg>
