<svg width="49" height="49" viewBox="0 0 49 49" fill="none" xmlns="http://www.w3.org/2000/svg">
<ellipse cx="24" cy="23.5" rx="24" ry="23.5" transform="matrix(-1 0 0 1 49 1)" fill="white" stroke="#EDEDED"/>
<path d="M23.6786 24.4999L28.0893 28.6901C28.4147 28.9993 28.4147 29.5005 28.0893 29.8097C27.7639 30.1189 27.2362 30.1189 26.9108 29.8097L21.9108 25.0597C21.5853 24.7505 21.5853 24.2493 21.9108 23.9401L26.9108 19.1901C27.2362 18.881 27.7639 18.881 28.0893 19.1901C28.4147 19.4993 28.4147 20.0005 28.0893 20.3097L23.6786 24.4999Z" fill="black"/>
<mask id="mask0_19_1331" style="mask-type:luminance" maskUnits="userSpaceOnUse" x="21" y="18" width="8" height="13">
<path d="M23.6786 24.4999L28.0893 28.6901C28.4147 28.9993 28.4147 29.5005 28.0893 29.8097C27.7639 30.1189 27.2362 30.1189 26.9108 29.8097L21.9108 25.0597C21.5853 24.7505 21.5853 24.2493 21.9108 23.9401L26.9108 19.1901C27.2362 18.881 27.7639 18.881 28.0893 19.1901C28.4147 19.4993 28.4147 20.0005 28.0893 20.3097L23.6786 24.4999Z" fill="white"/>
</mask>
<g mask="url(#mask0_19_1331)">
<rect width="20" height="19" transform="matrix(-1 0 0 1 35 15)" fill="black"/>
</g>
</svg>
