<svg width="29" height="29" viewBox="0 0 29 29" fill="none" xmlns="http://www.w3.org/2000/svg">
<rect width="29" height="29" rx="14.5" fill="#A0DFF4" fill-opacity="0.359921"/>
<path fill-rule="evenodd" clip-rule="evenodd" d="M17.3295 14.3391C17.592 14.0214 17.7741 13.6329 17.8491 13.2074C17.9335 12.7278 18 12.2057 18 11.75V9H12V11.75C12 12.2057 12.0664 12.7278 12.1509 13.2074C12.2258 13.6329 12.408 14.0214 12.6705 14.3391C12.9063 14.6246 13.2068 14.853 13.5525 15C13.2068 15.147 12.9063 15.3754 12.6705 15.6609C12.408 15.9786 12.2258 16.3671 12.1509 16.7926C12.0664 17.2722 12 17.7943 12 18.25V21H18V18.25C18 17.7943 17.9335 17.2722 17.8491 16.7926C17.7741 16.3671 17.592 15.9786 17.3295 15.6609C17.0938 15.3754 16.7932 15.147 16.4475 15C16.7932 14.853 17.0938 14.6246 17.3295 14.3391ZM17 20V18.25C17 17.8784 16.9444 17.4213 16.8643 16.9661C16.7787 16.4803 16.4648 16.094 16.0562 15.9202L15 15.4711L13.9438 15.9202C13.5351 16.094 13.2213 16.4803 13.1357 16.9661C13.0556 17.4213 13 17.8784 13 18.25V20H17ZM15 14.5289L16.0562 14.0798C16.4648 13.906 16.7787 13.5197 16.8643 13.034C16.9444 12.5787 17 12.1216 17 11.75V10H13V11.75C13 12.1216 13.0556 12.5787 13.1357 13.034C13.2213 13.5197 13.5351 13.906 13.9438 14.0798L15 14.5289Z" fill="#2D2D2D"/>
<path d="M11 20.5C11 20.2239 11.2239 20 11.5 20H18.5C18.7761 20 19 20.2239 19 20.5C19 20.7761 18.7761 21 18.5 21H11.5C11.2239 21 11 20.7761 11 20.5Z" fill="#2D2D2D"/>
<path d="M11 9.5C11 9.22386 11.2239 9 11.5 9H18.5C18.7761 9 19 9.22386 19 9.5C19 9.77614 18.7761 10 18.5 10H11.5C11.2239 10 11 9.77614 11 9.5Z" fill="#2D2D2D"/>
<path d="M13 19.9999C13 19.6934 13.1731 19.4133 13.4472 19.2763L14.5528 18.7235C14.8343 18.5827 15.1657 18.5827 15.4472 18.7235L16.5528 19.2763C16.8268 19.4133 17 19.6934 17 19.9999H13Z" fill="#2D2D2D"/>
</svg>
